<?xml version="1.0" encoding="UTF-8"?>
<svg version="1.1" xmlns="http://www.w3.org/2000/svg" width="1024" height="440">
<path d="M0 0 C337.92 0 675.84 0 1024 0 C1024 186.45 1024 372.9 1024 565 C686.08 565 348.16 565 0 565 C0 378.55 0 192.1 0 0 Z " fill="none" transform="translate(0,0)"/>
<path d="M0 0 C0.54188965 0.96123779 1.0837793 1.92247559 1.64208984 2.9128418 C6.23877308 11.05024506 11.05787623 18.98075556 16.1796875 26.80126953 C17.01932694 28.08387092 17.85729599 29.36756734 18.69360352 30.65234375 C19.51022989 31.90637413 20.33090904 33.15777651 21.15600586 34.40625 C24 38.77533832 24 38.77533832 24 41 C24.66 41 25.32 41 26 41 C27.04644066 42.63790712 28.0398183 44.31008021 29 46 C29.556875 46.70125 30.11375 47.4025 30.6875 48.125 C32 50 32 50 32 53 C33.32 53.66 34.64 54.32 36 55 C36 55.66 36 56.32 36 57 C36.66 57 37.32 57 38 57 C42 61.47058824 42 61.47058824 42 64 C42.66 64 43.32 64 44 64 C45.65625 65.828125 45.65625 65.828125 47.5 68.25 C48.1084375 69.03890625 48.716875 69.8278125 49.34375 70.640625 C50.79739033 72.71137679 51.94765743 74.7058932 53 77 C52.40574219 77.35191406 51.81148437 77.70382813 51.19921875 78.06640625 C45.60814524 81.39670354 40.09098107 84.82473245 34.609375 88.33203125 C31.08960705 90.5819428 27.54962679 92.79761792 24 95 C23.05125 95.598125 22.1025 96.19625 21.125 96.8125 C19 98 19 98 17 98 C17 98.66 17 99.32 17 100 C16.35933594 100.23074219 15.71867188 100.46148437 15.05859375 100.69921875 C14.19363281 101.02535156 13.32867187 101.35148437 12.4375 101.6875 C11.59058594 102.00074219 10.74367188 102.31398438 9.87109375 102.63671875 C6.82366351 103.96146334 6.82366351 103.96146334 3.8515625 106.41015625 C-0.68141935 109.7526206 -5.71704395 111.15530208 -11.0625 112.75 C-12.51366211 113.20439453 -12.51366211 113.20439453 -13.99414062 113.66796875 C-22.76206397 116.36856116 -30.53306919 117.15926487 -39.6875 117.125 C-41.25467773 117.13080078 -41.25467773 117.13080078 -42.85351562 117.13671875 C-43.85447266 117.13542969 -44.85542969 117.13414062 -45.88671875 117.1328125 C-46.79639404 117.13168457 -47.70606934 117.13055664 -48.64331055 117.12939453 C-51 117 -51 117 -54 116 C-54 115.34 -54 114.68 -54 114 C-54.64324219 113.99742187 -55.28648437 113.99484375 -55.94921875 113.9921875 C-64.29115913 113.63518577 -70.65213836 110.81995351 -78 107 C-78 106.34 -78 105.68 -78 105 C-78.65742188 104.93683594 -79.31484375 104.87367188 -79.9921875 104.80859375 C-84.22072272 103.67183168 -87.47558704 101.43229184 -91.125 99.0625 C-91.84042969 98.60681641 -92.55585938 98.15113281 -93.29296875 97.68164062 C-96.21536025 95.81622624 -99.11519463 93.92320358 -102 92 C-102 91.34 -102 90.68 -102 90 C-102.66386719 89.79890625 -103.32773437 89.5978125 -104.01171875 89.390625 C-108.15465353 87.46267104 -111.330627 84.67831087 -114.8125 81.75 C-116.17189744 80.61825285 -117.53257386 79.48804017 -118.89453125 78.359375 C-119.56693848 77.80185547 -120.2393457 77.24433594 -120.93212891 76.66992188 C-123.64078781 74.4825279 -126.42996755 72.41627885 -129.24487305 70.36816406 C-131.69980226 68.45448715 -133.74958101 66.26711358 -135.875 64 C-138.11005559 61.89641827 -140.35710496 60.54706051 -143 59 C-145.8125 56.9375 -145.8125 56.9375 -148 55 C-148 54.34 -148 53.68 -148 53 C-148.66 53 -149.32 53 -150 53 C-150 52.34 -150 51.68 -150 51 C-150.556875 50.9175 -151.11375 50.835 -151.6875 50.75 C-154.69714206 49.77389987 -156.62154752 48.04811186 -159 46 C-158.67 45.01 -158.34 44.02 -158 43 C-155.49193522 42.15190589 -153.13523129 41.50490345 -150.5625 40.9375 C-149.47412842 40.68154053 -149.47412842 40.68154053 -148.36376953 40.42041016 C-143.60904816 39.3155216 -138.83339423 38.33466637 -134.03515625 37.4375 C-131.77637814 36.99706636 -131.77637814 36.99706636 -128.8125 35.875 C-125.16728467 34.74093301 -122.78832632 34.3112134 -119 35 C-115.96936015 38.28192406 -114 41.49828822 -114 46 C-113.01 46.33 -112.02 46.66 -111 47 C-109.37839053 49.30767501 -108.14833051 51.20890392 -107.625 54 C-106.65721053 57.0969263 -104.28747856 58.7697084 -102 61 C-101.67 61.99 -101.34 62.98 -101 64 C-100.4225 64.556875 -99.845 65.11375 -99.25 65.6875 C-97.24681128 67.74633285 -96.01647207 69.49739546 -94.5625 71.9375 C-92.40167286 75.49535737 -90.02584508 78.11169333 -87 81 C-85.46768198 82.65611391 -83.94795107 84.32391845 -82.4375 86 C-81.32181641 87.2375 -81.32181641 87.2375 -80.18359375 88.5 C-78.73691288 90.15630726 -77.33304327 91.85107799 -75.9765625 93.58203125 C-74.09881943 95.87911219 -72.18579181 97.75977388 -69.9375 99.6875 C-69.26589844 100.26886719 -68.59429687 100.85023438 -67.90234375 101.44921875 C-65.87458561 103.15278989 -65.87458561 103.15278989 -63 105 C-64.93856562 101.4136536 -66.7224587 99.37339198 -70 97 C-70 96.34 -70 95.68 -70 95 C-70.556875 94.79375 -71.11375 94.5875 -71.6875 94.375 C-74.97012371 92.42316968 -76.70673246 90.05769006 -79 87 C-79 86.34 -79 85.68 -79 85 C-80.485 84.505 -80.485 84.505 -82 84 C-86.3325881 79.79329824 -89.97695896 74.84692904 -93.5390625 69.984375 C-94.49323996 68.68832648 -95.46661011 67.40613258 -96.4609375 66.140625 C-100.31195743 61.20968943 -103.42018564 55.99111114 -106.484375 50.5390625 C-107.89313127 47.94371348 -107.89313127 47.94371348 -110 46 C-110.13664062 45.39929688 -110.27328125 44.79859375 -110.4140625 44.1796875 C-111.18029095 41.32931766 -112.62585266 39.4940983 -114.375 37.125 C-118.95560748 30.72149771 -121.65945604 24.46982114 -124 17 C-124.66 17 -125.32 17 -126 17 C-126.36122881 15.68942607 -126.71380311 14.37646376 -127.0625 13.0625 C-127.35833984 11.96615234 -127.35833984 11.96615234 -127.66015625 10.84765625 C-127.77230469 10.23792969 -127.88445312 9.62820312 -128 9 C-122.4501092 3.4501092 -100.17756235 5.33274056 -92.69628906 4.89526367 C-82.95011112 4.32334063 -73.21128805 3.67350106 -63.47265625 2.984375 C-60.85270672 2.80054867 -58.23275224 2.61679287 -55.61279297 2.43310547 C-51.68301391 2.15741936 -47.7534313 1.87977389 -43.82427979 1.59527588 C-29.19169749 0.5373713 -14.67384015 -0.30729364 0 0 Z " fill="none" transform="translate(478,143)"/>
<path d="M0 0 C0.34780518 0.75676025 0.34780518 0.75676025 0.70263672 1.52880859 C1.75554355 3.81300077 2.81518168 6.09400694 3.875 8.375 C4.23980469 9.1690625 4.60460937 9.963125 4.98046875 10.78125 C5.33496094 11.54179687 5.68945312 12.30234375 6.0546875 13.0859375 C6.37937012 13.7876709 6.70405273 14.4894043 7.03857422 15.21240234 C7.98408273 17.17596008 7.98408273 17.17596008 10 19 C10 20.32 10 21.64 10 23 C10.66 23 11.32 23 12 23 C15 27.38461538 15 27.38461538 15 30 C15.66 30 16.32 30 17 30 C17.66 32.31 18.32 34.62 19 37 C19.66 37 20.32 37 21 37 C24 42.75 24 42.75 24 45 C24.66 45 25.32 45 26 45 C27.64471231 46.94539098 29.17489412 48.89297327 30.6875 50.9375 C31.58424878 52.13049906 32.48138648 53.32320587 33.37890625 54.515625 C34.04237061 55.40217773 34.04237061 55.40217773 34.71923828 56.30664062 C37.02256957 59.35199058 39.42578843 62.31912434 41.8203125 65.29296875 C43 67 43 67 43 69 C43.99 69.33 44.98 69.66 46 70 C47.4296875 71.62890625 47.4296875 71.62890625 48.875 73.5625 C51.22078875 76.54999513 51.22078875 76.54999513 54.875 77.4375 C55.57625 77.293125 56.2775 77.14875 57 77 C57 76.34 57 75.68 57 75 C67.37357631 69.44419134 67.37357631 69.44419134 73 69 C73 68.34 73 67.68 73 67 C75.65301385 65.92859056 78.30004272 64.94243792 81 64 C81.77859375 63.71382812 82.5571875 63.42765625 83.359375 63.1328125 C90.61738801 60.87810432 97.71302385 60.71199289 105.25 60.6875 C106.79494141 60.67940308 106.79494141 60.67940308 108.37109375 60.67114258 C116.3959078 60.74575881 123.05034534 62.02097723 130.5 65.125 C131.3559375 65.47820312 132.211875 65.83140625 133.09375 66.1953125 C133.7228125 66.46085937 134.351875 66.72640625 135 67 C135 67.66 135 68.32 135 69 C136.2375 69.37125 136.2375 69.37125 137.5 69.75 C140.11122509 70.68258039 142.56039234 71.6397854 145.0625 72.8125 C145.69285156 73.10769531 146.32320312 73.40289062 146.97265625 73.70703125 C149.69800831 75.44516522 151.718139 77.71474842 154 80 C155.95909454 81.49276751 157.96071313 82.93129933 160 84.3125 C161.010625 85.00988281 162.02125 85.70726562 163.0625 86.42578125 C166.10446722 88.05598443 167.62060365 88.4693606 171 88 C173.05990478 86.70532323 173.05990478 86.70532323 175 85 C176.63183107 83.94410931 178.30792999 82.9563874 180 82 C181.06734375 81.39091797 181.06734375 81.39091797 182.15625 80.76953125 C195.56029124 73.53728748 210.38240437 73.68717743 225 77 C227.27762515 77.8278805 229.39280924 78.79031892 231.5625 79.8671875 C234.6196179 81.28796345 237.74885148 82.34483811 240.9375 83.4375 C245.1431567 84.90385731 249.0775055 86.45585551 253 88.5625 C258.02609724 91.20389212 263.21589511 92.62898639 268.68359375 94.09765625 C271.37908893 94.83105953 273.99094218 95.63986269 276.625 96.5625 C281.99625293 98.39610026 287.48079641 99.6953277 293 101 C293.75410156 101.20882812 294.50820313 101.41765625 295.28515625 101.6328125 C314.32443806 106.4010277 338.36710681 103.02779249 356 95 C356.99 95 357.98 95 359 95 C359 95.99 359 96.98 359 98 C322.58006419 111.9224873 288.38561179 108.64416521 253 93 C252.01 92.67 251.02 92.34 250 92 C250 91.34 250 90.68 250 90 C248.72125 89.7525 247.4425 89.505 246.125 89.25 C242.65666848 88.48166447 239.47143118 87.47689387 236.1875 86.125 C234.92099609 85.61066406 234.92099609 85.61066406 233.62890625 85.0859375 C231.8777174 84.3625638 230.13525418 83.61769132 228.40234375 82.8515625 C214.49447459 77.33536123 197.78185907 78.56391905 184 84 C181.37090738 85.48996353 179.32548757 87.04447636 177 89 C175.515 89.495 175.515 89.495 174 90 C173.67 90.99 173.34 91.98 173 93 C173.61875 93.144375 174.2375 93.28875 174.875 93.4375 C177 94 177 94 179 95 C179 95.66 179 96.32 179 97 C179.83273437 97.26554687 180.66546875 97.53109375 181.5234375 97.8046875 C185 99 185 99 188.5390625 100.5078125 C203.20951201 106.49248223 221.88850478 108.24393384 237 103 C240.375 102.875 240.375 102.875 243 103 C243 103.99 243 104.98 243 106 C230.03439344 112.36906989 212.83859177 112.03928194 199.125 108.25 C197.0688857 107.54056589 195.02490797 106.79413507 193 106 C191.65808594 105.51466797 191.65808594 105.51466797 190.2890625 105.01953125 C175.41203704 99.41203704 175.41203704 99.41203704 172 96 C169.09410418 95.70006828 167.45963353 95.73551814 164.90234375 97.20703125 C164.25394531 97.73683594 163.60554688 98.26664062 162.9375 98.8125 C162.28652344 99.33457031 161.63554688 99.85664063 160.96484375 100.39453125 C160.31644531 100.92433594 159.66804688 101.45414062 159 102 C155.25517241 105 155.25517241 105 153 105 C153 105.66 153 106.32 153 107 C147.25 110 147.25 110 145 110 C145 110.66 145 111.32 145 112 C129.04943182 118.23765236 111.20853075 120.192342 95.09423828 113.16943359 C84.25980565 108.22880899 74.65308784 102.27902229 65.4375 94.75 C64.89963867 94.31316895 64.36177734 93.87633789 63.80761719 93.42626953 C62.49818796 92.33052892 61.24358376 91.16993667 60 90 C60 89.34 60 88.68 60 88 C56.01777532 90.17277017 53.0953877 92.69175762 49.9375 95.9375 C49.10089844 96.79214844 48.26429688 97.64679688 47.40234375 98.52734375 C45.96111553 100.01075426 44.52363523 101.49784023 43.09375 102.9921875 C31.35291648 114.25112113 17.21434715 124.34510991 2 130 C0.7460885 130.53254928 -0.5046363 131.07275727 -1.75 131.625 C-13.05833996 136.40929768 -22.86706643 138.32131628 -35.22167969 138.20581055 C-37.25989166 138.1874107 -39.29765057 138.18530248 -41.3359375 138.18554688 C-52.17037598 138.13708269 -52.17037598 138.13708269 -57 137 C-57 136.34 -57 135.68 -57 135 C-57.60078369 134.96841797 -58.20156738 134.93683594 -58.82055664 134.90429688 C-65.49420632 134.41429844 -71.20008037 132.86673449 -77.4375 130.5 C-78.38471924 130.14832764 -79.33193848 129.79665527 -80.30786133 129.43432617 C-89.11043964 126.09526522 -97.56615042 122.13529267 -106.00390625 117.97363281 C-108.70687215 116.65520962 -111.44291636 115.41653059 -114.1875 114.1875 C-118.52015458 112.23780544 -122.76664612 110.15661424 -127 108 C-127 107.34 -127 106.68 -127 106 C-128.010625 105.9175 -129.02125 105.835 -130.0625 105.75 C-133.54797873 105.25604992 -135.99125077 103.96927923 -138.9921875 102.10546875 C-142.24473727 100.314668 -145.73112495 99.22372676 -149.23046875 98.0078125 C-151.78872596 97.0768811 -154.22166277 96.02487228 -156.6875 94.875 C-160.72482104 93.02395389 -164.66441326 91.9459462 -169 91 C-169 90.34 -169 89.68 -169 89 C-169.59683594 88.96261719 -170.19367188 88.92523438 -170.80859375 88.88671875 C-175.82365691 88.50667682 -180.6576041 87.89479428 -185.58227539 86.85473633 C-208.61584549 82.15001883 -235.04952556 83.70470793 -256.48828125 93.86328125 C-261.61984651 96.18565371 -267.34447118 98 -273 98 C-273 98.66 -273 99.32 -273 100 C-276.96 100.99 -276.96 100.99 -281 102 C-281 102.66 -281 103.32 -281 104 C-283.97 104.99 -283.97 104.99 -287 106 C-287 106.66 -287 107.32 -287 108 C-289.97 108.495 -289.97 108.495 -293 109 C-293 107.68 -293 106.36 -293 105 C-290.65269212 103.67378615 -288.29835742 102.36419801 -285.9375 101.0625 C-284.95233398 100.50272461 -284.95233398 100.50272461 -283.94726562 99.93164062 C-279.55922537 97.53226886 -275.99126862 96.40890757 -271 96 C-271 95.34 -271 94.68 -271 94 C-266.11239478 91.82914158 -261.22843482 89.97074436 -256.125 88.375 C-255.41666016 88.15336182 -254.70832031 87.93172363 -253.97851562 87.70336914 C-249.74507897 86.42002362 -245.8157141 85.57652974 -241.41796875 85.3125 C-238.78334394 84.97199922 -236.34233877 84.25933694 -233.79907227 83.50830078 C-213.93093577 77.7995994 -188.54825517 79.67637315 -169 86 C-169 86.66 -169 87.32 -169 88 C-167.845 88.103125 -166.69 88.20625 -165.5 88.3125 C-161.00640749 88.86824466 -157.17367812 90.31678825 -153 92 C-151.00359361 92.67735217 -149.00495586 93.34838935 -147 94 C-147 94.66 -147 95.32 -147 96 C-145.906875 96.12375 -144.81375 96.2475 -143.6875 96.375 C-140 97 -140 97 -137 99 C-135.0103005 99.39013716 -133.00980131 99.73202649 -131 100 C-131 100.66 -131 101.32 -131 102 C-130.34 102 -129.68 102 -129 102 C-129 102.66 -129 103.32 -129 104 C-128.3709375 104.17015625 -127.741875 104.3403125 -127.09375 104.515625 C-121.34357787 106.14368578 -116.25426582 108.17985325 -111 111 C-109.08645371 111.96484718 -107.16660639 112.9162904 -105.24609375 113.8671875 C-103.58212755 114.70640524 -101.93017932 115.56954482 -100.28515625 116.4453125 C-93.9910601 119.73709998 -87.88901324 122.06382407 -81.0625 124.00390625 C-78.23196593 124.9245519 -75.94866131 126.02997471 -73.375 127.5 C-56.11263382 136.43548762 -32.50856061 136.37101159 -14 132 C-11.97388239 131.32985524 -10.01211161 130.61061591 -8.046875 129.78125 C-6 129 -6 129 -2.73828125 128.15234375 C1.3726625 126.88512494 4.82345181 125.1482536 8.5625 123.0625 C9.83424584 122.36517446 11.10637661 121.66855042 12.37890625 120.97265625 C12.98629639 120.63758057 13.59368652 120.30250488 14.21948242 119.95727539 C15.90210181 119.05263387 17.61847697 118.21160841 19.3359375 117.375 C22.07867567 116.13035195 22.07867567 116.13035195 24.0625 113.9375 C26.23373305 111.76626695 28.11268203 110.96243932 31 110 C31 109.34 31 108.68 31 108 C32.64351457 106.63823078 34.31522656 105.31037934 36 104 C36.845625 103.13375 37.69125 102.2675 38.5625 101.375 C40.70218264 99.29018101 42.27083122 98.11188358 45 97 C45 96.34 45 95.68 45 95 C46.875 92.875 46.875 92.875 49 91 C49.66 91 50.32 91 51 91 C51 90.34 51 89.68 51 89 C52.485 88.01 52.485 88.01 54 87 C54 85.68 54 84.36 54 83 C47.96259841 85.33522137 42.78576231 88.53282302 37.375 92.0625 C35.71869113 93.14063913 34.05990835 94.21498912 32.3984375 95.28515625 C31.67317871 95.75832275 30.94791992 96.23148926 30.20068359 96.71899414 C28 98 28 98 25.28759766 98.98217773 C24.53269043 99.31805908 23.7777832 99.65394043 23 100 C22.67 100.99 22.34 101.98 22 103 C20.35766602 104.04321289 20.35766602 104.04321289 18.25390625 104.97265625 C17.49916016 105.31490234 16.74441406 105.65714844 15.96679688 106.00976562 C15.17337891 106.35716797 14.37996094 106.70457031 13.5625 107.0625 C11.99957218 107.7578434 10.43829145 108.4569041 8.87890625 109.16015625 C8.1835376 109.46574463 7.48816895 109.77133301 6.77172852 110.08618164 C4.81597778 110.98115264 4.81597778 110.98115264 3 113 C-5.28100504 116.99772657 -15.71970504 121.48031101 -25 121 C-25 121.66 -25 122.32 -25 123 C-39.53806089 127.8460203 -59.86085319 124.19388907 -73.3125 117.5625 C-74.08335937 117.13839844 -74.85421875 116.71429688 -75.6484375 116.27734375 C-78.18985922 114.89687049 -80.78070468 113.7662994 -83.4375 112.625 C-100.532975 104.852162 -115.18458947 91.61962627 -129.6484375 79.84375 C-130.52757812 79.1321875 -131.40671875 78.420625 -132.3125 77.6875 C-133.09238281 77.05199219 -133.87226563 76.41648437 -134.67578125 75.76171875 C-136.99189524 73.93989921 -136.99189524 73.93989921 -139.640625 72.41796875 C-142.56852032 70.65832305 -144.61667677 68.44145307 -147 66 C-148.98087619 64.30210613 -150.97625237 62.64508383 -153 61 C-153.89847656 60.25878906 -154.79695312 59.51757812 -155.72265625 58.75390625 C-161.21643554 54.18400063 -161.21643554 54.18400063 -167 50 C-167 48.68 -167 47.36 -167 46 C-157.60349456 43.12973639 -148.15346868 40.82794665 -138.55419922 38.7512207 C-134.20600592 37.79659779 -130.06600341 36.87397197 -126 35 C-126.40992188 34.04738281 -126.81984375 33.09476563 -127.2421875 32.11328125 C-127.7864909 30.84636816 -128.33075991 29.57944029 -128.875 28.3125 C-129.14441406 27.68666016 -129.41382813 27.06082031 -129.69140625 26.41601562 C-130.46561416 24.61267769 -131.23293164 22.80638637 -132 21 C-132.39445313 20.08605469 -132.78890625 19.17210937 -133.1953125 18.23046875 C-134 16 -134 16 -134 13 C-134.66 13 -135.32 13 -136 13 C-136 11.68 -136 10.36 -136 9 C-125.56019838 8.19289472 -115.12018801 7.38857089 -104.67980957 6.58895874 C-100.73352891 6.28666717 -96.78728393 5.98398846 -92.84130859 5.67773438 C-80.75583635 4.74109833 -68.68850327 3.89767753 -56.5769043 3.39404297 C-49.53810924 3.07878138 -42.55112534 2.43728865 -35.54174805 1.73486328 C-23.70038627 0.55329573 -11.90988044 -0.20300933 0 0 Z M-41.65625 5.4296875 C-49.32822317 6.03939442 -57.00594503 6.52933366 -64.6875 7 C-66.02832509 7.0830935 -67.36914539 7.16626431 -68.70996094 7.24951172 C-74.94176147 7.63508758 -81.17401674 8.01156415 -87.40715027 8.37496948 C-108.75606651 9.60287021 -108.75606651 9.60287021 -130 12 C-131.25541557 15.76624671 -130.37061958 17.37188934 -129 21 C-128.34 21 -127.68 21 -127 21 C-126.649375 22.2375 -126.29875 23.475 -125.9375 24.75 C-123.54806133 31.94107256 -119.66952869 38.7753252 -114.83984375 44.609375 C-113.04109379 46.94660425 -112.58750489 48.20071201 -112 51 C-110.93289789 52.74013284 -110.93289789 52.74013284 -109.625 54.375 C-107.9950748 56.56216459 -106.77259561 58.46469592 -105.5625 60.9375 C-103.48423322 65.01090289 -100.79968918 68.39707359 -98 72 C-97.17473531 73.08644588 -96.35059695 74.17374787 -95.52734375 75.26171875 C-94.64345193 76.42464852 -93.75933669 77.5874085 -92.875 78.75 C-92.45532959 79.30502197 -92.03565918 79.86004395 -91.60327148 80.43188477 C-89.25256453 83.50317185 -86.90259248 86.43375944 -84 89 C-83.34 89 -82.68 89 -82 89 C-81.773125 89.721875 -81.54625 90.44375 -81.3125 91.1875 C-79.73664872 94.56432417 -77.79123384 96.55767039 -75 99 C-74.34 99 -73.68 99 -73 99 C-73 99.66 -73 100.32 -73 101 C-72.030625 101.804375 -71.06125 102.60875 -70.0625 103.4375 C-67 106 -67 106 -66 109 C-66.50789063 108.55269531 -67.01578125 108.10539062 -67.5390625 107.64453125 C-68.22742188 107.03996094 -68.91578125 106.43539062 -69.625 105.8125 C-70.35847656 105.16796875 -71.09195313 104.5234375 -71.84765625 103.859375 C-73.55207797 102.3869526 -75.3002067 100.9651416 -77.0625 99.5625 C-82.73350582 94.61545237 -87.23161889 88.78501231 -91.6640625 82.734375 C-93.03025048 80.8746664 -93.03025048 80.8746664 -95.0625 79 C-97.49182352 76.49231121 -99.09955751 73.71445384 -100.8515625 70.70703125 C-101.90133104 68.84413578 -101.90133104 68.84413578 -104 68 C-105.10181237 66.24398654 -106.03718558 64.42911499 -107 62.59375 C-107.91759769 60.82455659 -107.91759769 60.82455659 -110 60 C-111.03101947 57.68020619 -112.02936517 55.34570085 -113 53 C-113.66 52.01 -114.32 51.02 -115 50 C-115.66 50 -116.32 50 -117 50 C-117.0825 49.29875 -117.165 48.5975 -117.25 47.875 C-118.21950815 44.15855211 -119.45052146 41.88493625 -122 39 C-126.90885985 38.2727615 -130.39352443 39.45309185 -135 41 C-137.01438697 41.50558201 -139.03575667 41.98398095 -141.0625 42.4375 C-142.18140625 42.69015625 -143.3003125 42.9428125 -144.453125 43.203125 C-146.20882812 43.59757812 -146.20882812 43.59757812 -148 44 C-150.43784337 44.56100998 -152.87535923 45.12344559 -155.3125 45.6875 C-157.20833333 46.125 -159.10416667 46.5625 -161 47 C-161 48.32 -161 49.64 -161 51 C-157.58526687 54.3603425 -157.58526687 54.3603425 -153 55 C-153 55.66 -153 56.32 -153 57 C-152.34 57 -151.68 57 -151 57 C-150.6596875 57.86625 -150.6596875 57.86625 -150.3125 58.75 C-148.08951132 62.56083774 -145.14211008 64.61929664 -141 66 C-139.64175118 67.30794331 -138.31543863 68.64900897 -137 70 C-130.54806599 75.99458173 -123.57243753 81.36167071 -116.61523438 86.74902344 C-115.20409931 87.84192792 -113.79701429 88.9400577 -112.390625 90.0390625 C-109.07289 92.95239413 -109.07289 92.95239413 -105 94 C-105 94.66 -105 95.32 -105 96 C-102.82777154 97.61806614 -102.82777154 97.61806614 -100.0625 99.25 C-95.58382247 102.00300152 -91.24682365 104.87376924 -86.97265625 107.93359375 C-84.78728427 109.31703565 -84.78728427 109.31703565 -81 109 C-81 109.66 -81 110.32 -81 111 C-72.9678247 115.17570958 -66.1257228 117.96342396 -57 118 C-57 118.66 -57 119.32 -57 120 C-52.36664983 121.54445006 -47.72790874 121.18446693 -42.875 121.1875 C-41.86695313 121.19974609 -40.85890625 121.21199219 -39.8203125 121.22460938 C-33.58639605 121.23672191 -28.00007515 120.68036903 -22 119 C-21.21963379 118.78674072 -20.43926758 118.57348145 -19.63525391 118.35375977 C-17.20352183 117.66587101 -14.78955031 116.93328449 -12.375 116.1875 C-11.56804687 115.95224609 -10.76109375 115.71699219 -9.9296875 115.47460938 C-5.15214281 113.99713817 -1.52860018 112.19987825 2.42773438 109.14819336 C4.61337929 107.55206168 6.90873297 106.62279739 9.4375 105.6875 C10.30246094 105.36136719 11.16742188 105.03523438 12.05859375 104.69921875 C12.69925781 104.46847656 13.33992187 104.23773438 14 104 C14 103.34 14 102.68 14 102 C16.44226354 100.76820332 18.89168564 99.58718258 21.375 98.4375 C26.03194394 96.11771636 30.34215679 93.27638112 34.69335938 90.43945312 C39.72002964 87.16260753 44.82619413 84.03990898 50 81 C48.51516897 77.76306836 46.67292565 75.0674375 44.5 72.25 C43.8915625 71.45078125 43.283125 70.6515625 42.65625 69.828125 C41.83640625 68.92320312 41.83640625 68.92320312 41 68 C40.34 68 39.68 68 39 68 C38.71125 67.401875 38.4225 66.80375 38.125 66.1875 C36.95257974 63.80672208 36.95257974 63.80672208 35 61 C34.34 61 33.68 61 33 61 C32.01 59.02 32.01 59.02 31 57 C30.34 57 29.68 57 29 57 C28.9175 56.443125 28.835 55.88625 28.75 55.3125 C27.77538491 52.30743682 25.99175531 50.42745178 24 48 C23.67 47.01 23.34 46.02 23 45 C22.34 45 21.68 45 21 45 C20.7421875 44.29617187 20.484375 43.59234375 20.21875 42.8671875 C18.89084203 39.74319888 17.29060168 37.00904287 15.5 34.125 C15.15614258 33.56981689 14.81228516 33.01463379 14.45800781 32.44262695 C11.26822041 27.3354229 7.91988645 22.33451451 4.50195312 17.37744141 C1.58167643 13.08340407 -0.75353516 8.68357004 -3 4 C-15.96793689 3.7156847 -28.73102286 4.39945459 -41.65625 5.4296875 Z " fill="#353534" transform="translate(481,139)"/>
<path d="M0 0 C60.62857143 0 60.62857143 0 72.5625 10.1875 C74 12 74 12 74 14 C74.8971875 14.2475 74.8971875 14.2475 75.8125 14.5 C79.17578505 16.80625261 79.99216301 20.20218009 81 24 C81.3960663 27.20150785 81.42129259 30.34002147 81.375 33.5625 C81.38660156 34.37396484 81.39820313 35.18542969 81.41015625 36.02148438 C81.37792744 42.67673302 80.21277075 47.55430601 75.625 52.625 C74.75875 53.40875 73.8925 54.1925 73 55 C71.8553125 56.2684375 71.8553125 56.2684375 70.6875 57.5625 C66.24488589 61.59184768 62.0457432 64 56 64 C57.57513866 66.75649266 59.17905786 69.21998537 61.1875 71.6875 C63 74 63 74 63 76 C63.66 76 64.32 76 65 76 C68.89641503 81.19187261 72.0241141 86.96346958 75.0625 92.6875 C77.2942315 96.88699476 79.78089013 100.57625232 82.80078125 104.24609375 C84.10718639 106.15676445 84.57768113 107.73935191 85 110 C85.66 110 86.32 110 87 110 C87.66 111.98 88.32 113.96 89 116 C84.05 116 79.1 116 74 116 C73.62875 114.845 73.2575 113.69 72.875 112.5 C71.32146077 108.28217852 69.03938383 105.12352964 66.20703125 101.6640625 C65 100 65 100 65 98 C64.34 98 63.68 98 63 98 C62.41025391 96.50146484 62.41025391 96.50146484 61.80859375 94.97265625 C60.01615527 90.79380407 57.63494429 87.17193992 55.0625 83.4375 C54.63259766 82.80392578 54.20269531 82.17035156 53.75976562 81.51757812 C52.11492973 79.09400353 50.46895091 76.67185325 48.79248047 74.27001953 C46 70.21594287 46 70.21594287 46 68 C35.11 68 24.22 68 13 68 C13 83.84 13 99.68 13 116 C8.71 116 4.42 116 0 116 C0 77.72 0 39.44 0 0 Z " fill="#0E0E0D" transform="translate(591,310)"/>
<path d="M0 0 C61.60815541 0 61.60815541 0 70.125 8.0625 C70.66286133 8.54348145 71.20072266 9.02446289 71.75488281 9.52001953 C76.17619481 13.69145503 78.65662249 18.03621801 80 24 C80.18433594 24.79664063 80.36867188 25.59328125 80.55859375 26.4140625 C82.21462196 36.11574987 81.44475715 46.14485238 77 55 C69.78734406 64.01581992 60.08066946 67.87458741 49 70 C45.96345711 70.2449154 42.95103963 70.23527615 39.90625 70.1953125 C38.79781738 70.19229126 38.79781738 70.19229126 37.66699219 70.18920898 C34.944597 70.17885874 32.2222913 70.15093751 29.5 70.125 C20.3425 70.063125 20.3425 70.063125 11 70 C11 84.85 11 99.7 11 115 C7.37 115 3.74 115 0 115 C0 77.05 0 39.1 0 0 Z " fill="#F6F6F5" transform="translate(159,310)"/>
<path d="M0 0 C48 0 48 0 64 4 C64.99 4.99 65.98 5.98 67 7 C68.175625 7.680625 68.175625 7.680625 69.375 8.375 C75.15329649 11.95204069 78.88174468 16.57389851 80.55859375 23.2109375 C82.34030367 34.46882139 81.92011037 45.90304622 75.26953125 55.49609375 C67.98119034 64.35557402 59.17422535 68.17533685 48 70 C41.5948937 70.4591435 35.16514795 70.28364214 28.75 70.1875 C19.96375 70.0946875 19.96375 70.0946875 11 70 C11 84.85 11 99.7 11 115 C7.37 115 3.74 115 0 115 C0 77.05 0 39.1 0 0 Z " fill="#F8F8F7" transform="translate(384,310)"/>
<path d="M0 0 C3.3 0 6.6 0 10 0 C10.96087136 1.89454824 11.91858969 3.79069581 12.875 5.6875 C13.40867187 6.74324219 13.94234375 7.79898437 14.4921875 8.88671875 C15.41398775 10.79002135 16.2868768 12.71928599 17.0703125 14.68359375 C18.03146015 17.2489176 18.03146015 17.2489176 20 20.375 C22.84740137 25.2441622 23.99780685 30.48793765 25 36 C25.66 36 26.32 36 27 36 C27.1959375 36.53625 27.391875 37.0725 27.59375 37.625 C29.72281319 43.20461387 32.19171619 48.54640338 34.875 53.875 C35.21917969 54.55852539 35.56335938 55.24205078 35.91796875 55.94628906 C37.54345326 59.15920835 39.18594255 62.36239964 40.8515625 65.5546875 C41.39554687 66.60914063 41.93953125 67.66359375 42.5 68.75 C42.9846875 69.67296875 43.469375 70.5959375 43.96875 71.546875 C45 74 45 74 45 78 C45.66 78 46.32 78 47 78 C47.23074219 78.68964844 47.46148437 79.37929688 47.69921875 80.08984375 C49.62976985 85.65257796 51.81143784 90.67077275 54.77734375 95.75 C56.49555412 98.91194624 57.73643968 102.20941972 59.01953125 105.56640625 C59.98134317 107.95369242 61.07140696 110.21311595 62.25 112.5 C64 116 64 116 64 118 C59.05 118 54.1 118 49 118 C48.505 114.535 48.505 114.535 48 111 C47.34 110.67 46.68 110.34 46 110 C44.94841627 107.86754051 43.98296377 105.69224959 43.0625 103.5 C42.55847656 102.3140625 42.05445313 101.128125 41.53515625 99.90625 C39.86727168 95.66226889 38.44198525 91.32595575 37 87 C4.33 86.505 4.33 86.505 -29 86 C-29 87.65 -29 89.3 -29 91 C-29.953125 93.140625 -29.953125 93.140625 -31.25 95.25 C-35.51211349 102.52208064 -38.45331678 109.97794787 -41 118 C-44.63 118 -48.26 118 -52 118 C-48.95753692 108.51551414 -44.8287858 99.4868281 -40.3125 90.625 C-37.86617951 85.81895443 -35.73512863 81.1033195 -34 76 C-33.34 76 -32.68 76 -32 76 C-31.896875 75.13375 -31.79375 74.2675 -31.6875 73.375 C-30.9595596 69.80147439 -29.70607498 67.20742096 -28 64 C-27.31867549 62.33927151 -26.65257873 60.672233 -26 59 C-25.525625 57.906875 -25.05125 56.81375 -24.5625 55.6875 C-23.51970473 53.28342027 -22.62066436 50.91889343 -21.75 48.4375 C-20.35339941 44.62792457 -18.54857748 41.10353684 -16.6875 37.5 C-13.75205083 31.80118504 -11.44181986 26.02825309 -9.28344727 19.99804688 C-6.74565385 13.04015699 -3.45641069 6.54468296 0 0 Z " fill="#10100F" transform="translate(296,308)"/>
<path d="M0 0 C11.23771951 -0.73461194 20.4740374 1.19177887 30.97460938 5.14892578 C30.97460938 5.80892578 30.97460938 6.46892578 30.97460938 7.14892578 C31.62429688 7.20306641 32.27398438 7.25720703 32.94335938 7.31298828 C37.34689608 8.52736567 40.71095148 10.98881943 44.47460938 13.52392578 C45.96376401 14.51155165 47.45333675 15.49854742 48.94335938 16.48486328 C49.63816406 16.94989258 50.33296875 17.41492188 51.04882812 17.89404297 C52.664306 18.94672505 54.33039645 19.92116532 56.00585938 20.87548828 C56.98039063 21.50583984 56.98039063 21.50583984 57.97460938 22.14892578 C57.97460938 22.80892578 57.97460938 23.46892578 57.97460938 24.14892578 C58.77898437 24.39642578 59.58335937 24.64392578 60.41210938 24.89892578 C61.25773438 25.31142578 62.10335937 25.72392578 62.97460938 26.14892578 C63.63476562 28.22705078 63.63476562 28.22705078 63.97460938 30.14892578 C56.66973379 35.54493607 49.46926651 40.71793943 41.37695312 44.89501953 C38.91713256 46.13399625 38.91713256 46.13399625 36.47851562 47.74658203 C27.83661169 52.58658751 12.26786654 51.61155716 2.82714844 49.71826172 C-0.69755034 48.63864166 -3.83019382 46.95693958 -7.02539062 45.14892578 C-8.6451374 44.46959536 -10.26994974 43.80217303 -11.90039062 43.14892578 C-15.92014816 41.35995261 -18.71058826 39.0217545 -22.02539062 36.14892578 C-23.99535406 35.09098246 -25.98809137 34.07056116 -28.02539062 33.14892578 C-28.02539062 32.48892578 -28.02539062 31.82892578 -28.02539062 31.14892578 C-28.59773437 31.05740234 -29.17007813 30.96587891 -29.75976562 30.87158203 C-32.57994768 29.9720412 -34.10123325 28.57940338 -36.27539062 26.58642578 C-37.335 25.62542969 -37.335 25.62542969 -38.41601562 24.64501953 C-38.94710937 24.15130859 -39.47820313 23.65759766 -40.02539062 23.14892578 C-39.59576555 18.79130004 -36.73552431 16.53739354 -33.65039062 13.77392578 C-32.83900635 13.04701538 -32.83900635 13.04701538 -32.01123047 12.30541992 C-22.07178912 3.64937594 -13.04574529 0.95924598 0 0 Z " fill="#FBFBF9" transform="translate(582.025390625,202.85107421875)"/>
<path d="M0 0 C24.09 0 48.18 0 73 0 C73 2.64 73 5.28 73 8 C52.87 8 32.74 8 12 8 C12 22.52 12 37.04 12 52 C29.82 52 47.64 52 66 52 C66 54.64 66 57.28 66 60 C48.18 60 30.36 60 12 60 C12 75.84 12 91.68 12 108 C33.12 108 54.24 108 76 108 C76 110.64 76 113.28 76 116 C50.92 116 25.84 116 0 116 C0 77.72 0 39.44 0 0 Z " fill="#10100F" transform="translate(491,310)"/>
<path d="M0 0 C48 0 48 0 64 4 C64.99 4.99 65.98 5.98 67 7 C68.175625 7.680625 68.175625 7.680625 69.375 8.375 C75.15329649 11.95204069 78.88174468 16.57389851 80.55859375 23.2109375 C82.34030367 34.46882139 81.92011037 45.90304622 75.26953125 55.49609375 C67.98119034 64.35557402 59.17422535 68.17533685 48 70 C41.5948937 70.4591435 35.16514795 70.28364214 28.75 70.1875 C19.96375 70.0946875 19.96375 70.0946875 11 70 C11 84.85 11 99.7 11 115 C7.37 115 3.74 115 0 115 C0 77.05 0 39.1 0 0 Z M11 7 C11 25.48 11 43.96 11 63 C22.55 63 34.1 63 46 63 C46 62.34 46 61.68 46 61 C46.969375 60.938125 47.93875 60.87625 48.9375 60.8125 C54.48066039 60.02223273 60.07085868 57.32764939 63.6640625 52.9921875 C69.28167939 44.61503951 69.73100682 35.44388823 68.6328125 25.57421875 C67.54461219 21.14752737 65.12303744 18.22543211 62 15 C61.52175781 14.48308594 61.04351562 13.96617187 60.55078125 13.43359375 C56.59769734 9.63213497 53.2429735 9.27118828 48 9 C48 8.34 48 7.68 48 7 C35.79 7 23.58 7 11 7 Z " fill="#070707" transform="translate(384,310)"/>
<path d="M0 0 C61.60815541 0 61.60815541 0 70.125 8.0625 C70.66286133 8.54348145 71.20072266 9.02446289 71.75488281 9.52001953 C76.17619481 13.69145503 78.65662249 18.03621801 80 24 C80.18433594 24.79664063 80.36867188 25.59328125 80.55859375 26.4140625 C82.21462196 36.11574987 81.44475715 46.14485238 77 55 C69.78734406 64.01581992 60.08066946 67.87458741 49 70 C45.96345711 70.2449154 42.95103963 70.23527615 39.90625 70.1953125 C38.79781738 70.19229126 38.79781738 70.19229126 37.66699219 70.18920898 C34.944597 70.17885874 32.2222913 70.15093751 29.5 70.125 C20.3425 70.063125 20.3425 70.063125 11 70 C11 84.85 11 99.7 11 115 C7.37 115 3.74 115 0 115 C0 77.05 0 39.1 0 0 Z M11 8 C10.9064081 9.71865409 10.88255389 11.44115744 10.88647461 13.16235352 C10.88655014 14.26341934 10.88662567 15.36448517 10.88670349 16.49891663 C10.89186478 17.6968132 10.89702606 18.89470978 10.90234375 20.12890625 C10.9037587 21.34827377 10.90517365 22.5676413 10.90663147 23.82395935 C10.91225033 27.7368307 10.92480604 31.64964581 10.9375 35.5625 C10.94251257 38.20768147 10.9470759 40.85286383 10.95117188 43.49804688 C10.96222589 49.99871726 10.97898236 56.49935461 11 63 C15.60398867 63.12532845 20.20694546 63.21513346 24.81225586 63.2746582 C26.37265354 63.29951807 27.93293838 63.33341932 29.49291992 63.37719727 C40.20489737 63.66987425 48.20199217 62.7293637 58 58 C59.7325 57.2265625 59.7325 57.2265625 61.5 56.4375 C67.18237556 50.89718383 69.19566022 43.60979634 69.54272461 35.84570312 C69.60713009 29.02031229 69.03781564 23.67476793 65 18 C62.54366927 15.68392126 62.54366927 15.68392126 60 14 C59.54931152 13.51490967 59.09862305 13.02981934 58.63427734 12.5300293 C51.30980015 5.67276928 40.01559813 6.46608214 30.69873047 6.64331055 C28.34451086 6.6880798 25.9913149 6.70486562 23.63671875 6.71679688 C22.14061007 6.73019585 20.64451401 6.74511179 19.1484375 6.76171875 C18.09237808 6.77279915 18.09237808 6.77279915 17.01498413 6.78410339 C13.72403963 6.57383595 13.72403963 6.57383595 11 8 Z " fill="#090908" transform="translate(159,310)"/>
<path d="M0 0 C5.341875 -0.103125 10.68375 -0.20625 16.1875 -0.3125 C17.84418701 -0.35802002 19.50087402 -0.40354004 21.20776367 -0.45043945 C30.44406156 -0.59934744 38.85341296 0.09283089 47 5 C49.21948242 7.54956055 49.21948242 7.54956055 51 10 C51.70125 10.66 52.4025 11.32 53.125 12 C57.64696469 16.823429 57.42293992 22.42154492 57.31640625 28.70703125 C56.61317763 36.02581805 53.23084833 41.88539274 48 47 C40.87080142 51.71447003 35.4713837 53.1569275 26.953125 53.09765625 C26.26911621 53.09664917 25.58510742 53.09564209 24.88037109 53.09460449 C22.33689689 53.0893913 19.79344668 53.07543006 17.25 53.0625 C8.71125 53.0315625 8.71125 53.0315625 0 53 C0 35.51 0 18.02 0 0 Z " fill="#F8F8F7" transform="translate(603,317)"/>
<path d="M0 0 C0.99 0 1.98 0 3 0 C8.94566917 12.62252096 8.94566917 12.62252096 10.4375 16.9375 C11.78830722 20.74066555 13.60782811 24.28566189 15.4375 27.875 C19.59699627 36.06027115 23.00526374 44.02368682 25 53 C25.66 53 26.32 53 27 53 C29.03435531 56.72965139 30 58.66905042 30 63 C11.52 63 -6.96 63 -26 63 C-25.505 60.03 -25.505 60.03 -25 57 C-24.34 57 -23.68 57 -23 57 C-22.81824219 56.3709375 -22.63648438 55.741875 -22.44921875 55.09375 C-20.84447416 49.62938892 -19.06414546 44.30780262 -17 39 C-16.34 39 -15.68 39 -15 39 C-14.87625 38.28070313 -14.7525 37.56140625 -14.625 36.8203125 C-13.99998347 33.99992543 -13.10795655 31.53898377 -12 28.875 C-10.91805888 26.25765713 -9.89614813 23.6884444 -9 21 C-8.34 21 -7.68 21 -7 21 C-7.0825 20.360625 -7.165 19.72125 -7.25 19.0625 C-6.88367407 14.57500737 -4.91496354 11.02897346 -3 7 C-2.40965487 5.64887537 -1.82549824 4.29501498 -1.25 2.9375 C-0.8375 1.968125 -0.425 0.99875 0 0 Z " fill="#F7F7F6" transform="translate(298,323)"/>
<path d="M0 0 C3.63 0 7.26 0 11 0 C11 35.64 11 71.28 11 108 C31.79 108 52.58 108 74 108 C74 110.31 74 112.62 74 115 C49.58 115 25.16 115 0 115 C0 77.05 0 39.1 0 0 Z " fill="#030303" transform="translate(705,310)"/>
<path d="M0 0 C3.63 0 7.26 0 11 0 C11 37.62 11 75.24 11 114 C7.37 114 3.74 114 0 114 C0 76.38 0 38.76 0 0 Z " fill="#020201" transform="translate(805,311)"/>
<path d="M0 0 C3.63804412 1.448918 5.08080431 3.20360066 7.125 6.5 C8.65836381 8.94702618 9.95347537 10.95347537 12 13 C12.15726562 13.63164062 12.31453125 14.26328125 12.4765625 14.9140625 C13.05971637 17.2379742 13.91622696 18.49185662 15.375 20.375 C17.0049252 22.56216459 18.22740439 24.46469592 19.4375 26.9375 C21.08091621 30.15859577 22.98779118 32.80233488 25.1953125 35.65234375 C26.550725 37.41555351 27.87355935 39.20388376 29.1796875 41.00390625 C33.7074973 47.43290632 33.7074973 47.43290632 39.3125 52.875 C42.33066339 55.26145477 43.893424 57.80615896 46 61 C47.65191491 62.35156675 49.31522656 63.68962066 51 65 C51 65.66 51 66.32 51 67 C51.8971875 67.4021875 51.8971875 67.4021875 52.8125 67.8125 C55.01819033 69.00987475 56.43583187 70.04478984 58 72 C58 72.99 58 73.98 58 75 C49.11767682 71.21409176 42.04319538 62.3146209 36 55 C35.49339844 54.41992188 34.98679687 53.83984375 34.46484375 53.2421875 C31 49.24651811 31 49.24651811 31 47 C30.39671875 46.7525 29.7934375 46.505 29.171875 46.25 C26.64277047 44.79440027 25.73227493 43.48875791 24.25 41 C23.82203125 40.29875 23.3940625 39.5975 22.953125 38.875 C22 37 22 37 22 35 C20.515 34.505 20.515 34.505 19 34 C16 29.66666667 16 29.66666667 16 27 C15.01 26.67 14.02 26.34 13 26 C11.96898053 23.68020619 10.97063483 21.34570085 10 19 C9.52949219 18.53722656 9.05898438 18.07445312 8.57421875 17.59765625 C6.5588964 15.5523291 5.55319044 13.39447741 4.3125 10.8125 C3.87550781 9.91144531 3.43851562 9.01039063 2.98828125 8.08203125 C2.49908203 7.05142578 2.49908203 7.05142578 2 6 C-2.90235043 5.80390598 -6.39881818 6.41279282 -11 8 C-13.01438697 8.50558201 -15.03575667 8.98398095 -17.0625 9.4375 C-18.74085938 9.81648437 -18.74085938 9.81648437 -20.453125 10.203125 C-21.62359375 10.46609375 -22.7940625 10.7290625 -24 11 C-26.43784337 11.56100998 -28.87535923 12.12344559 -31.3125 12.6875 C-34.15625 13.34375 -34.15625 13.34375 -37 14 C-37 14.66 -37 15.32 -37 16 C-34.35153397 18.36214538 -32.38483604 19.87172132 -29 21 C-29 21.66 -29 22.32 -29 23 C-28.34 23 -27.68 23 -27 23 C-25.33333333 24.66666667 -23.66666667 26.33333333 -22 28 C-20.01231606 29.35162508 -18.0133653 30.68693567 -16 32 C-14.98530635 32.9850872 -13.98603377 33.98622615 -13 35 C-3.62343666 43.69162546 6.62764384 51.63939925 17.3046875 58.66015625 C17.86414063 59.10230469 18.42359375 59.54445312 19 60 C19 60.66 19 61.32 19 62 C19.71027344 62.25910156 20.42054688 62.51820313 21.15234375 62.78515625 C24.18816351 64.08027277 26.79245594 65.64602505 29.5625 67.4375 C30.95662109 68.33275391 30.95662109 68.33275391 32.37890625 69.24609375 C34.01843499 70.34318526 35.631454 71.48228281 37.19921875 72.6796875 C39.13647207 74.10005978 40.65358438 74.58099721 43 75 C43 75.66 43 76.32 43 77 C43.845625 77.268125 44.69125 77.53625 45.5625 77.8125 C49 79 49 79 52.1875 80.5 C56.89551467 82.58891642 61.94170921 83.22250503 67 84 C67 84.66 67 85.32 67 86 C71.14577275 86.05863894 75.29143705 86.09380984 79.4375 86.125 C81.18450195 86.15013672 81.18450195 86.15013672 82.96679688 86.17578125 C89.62481375 86.2132912 95.6008659 85.84865504 102 84 C102.77819092 83.78666016 103.55638184 83.57332031 104.3581543 83.35351562 C106.79256283 82.66698161 109.20834606 81.93393424 111.625 81.1875 C112.43195313 80.95224609 113.23890625 80.71699219 114.0703125 80.47460938 C119.56829138 78.77434156 123.4537245 76.52521739 128 73 C131.85879921 70.80578084 133.50636807 70 138 70 C138 69.34 138 68.68 138 68 C138.886875 67.505 139.77375 67.01 140.6875 66.5 C147.8883272 62.37904467 154.96318568 58.02269919 161.8828125 53.4453125 C162.51823975 53.02725342 163.15366699 52.60919434 163.80834961 52.1784668 C165.0455861 51.3614117 166.27832998 50.53750596 167.50610352 49.70629883 C168.96591783 48.74368443 170.47929594 47.86321695 172 47 C172.66 47.33 173.32 47.66 174 48 C172.83656388 51.49030836 172.22774394 51.75634075 169.17578125 53.55859375 C168.39396484 54.02716797 167.61214844 54.49574219 166.80664062 54.97851562 C165.98357422 55.45998047 165.16050781 55.94144531 164.3125 56.4375 C162.70378015 57.39344339 161.09569432 58.35045464 159.48828125 59.30859375 C158.7195166 59.76347168 157.95075195 60.21834961 157.15869141 60.68701172 C155.24140028 61.85317228 153.38937447 63.07351848 151.54296875 64.34765625 C149 66 149 66 147 66 C146.67 66.99 146.34 67.98 146 69 C144.35766602 70.04321289 144.35766602 70.04321289 142.25390625 70.97265625 C141.49916016 71.31490234 140.74441406 71.65714844 139.96679688 72.00976562 C139.17337891 72.35716797 138.37996094 72.70457031 137.5625 73.0625 C135.99957218 73.7578434 134.43829145 74.4569041 132.87890625 75.16015625 C132.1835376 75.46574463 131.48816895 75.77133301 130.77172852 76.08618164 C128.81597778 76.98115264 128.81597778 76.98115264 127 79 C118.71899496 82.99772657 108.28029496 87.48031101 99 87 C99 87.66 99 88.32 99 89 C84.46193911 93.8460203 64.13914681 90.19388907 50.6875 83.5625 C49.91664063 83.13839844 49.14578125 82.71429688 48.3515625 82.27734375 C45.81014078 80.89687049 43.21929532 79.7662994 40.5625 78.625 C23.467025 70.852162 8.81541053 57.61962627 -5.6484375 45.84375 C-6.52757812 45.1321875 -7.40671875 44.420625 -8.3125 43.6875 C-9.09238281 43.05199219 -9.87226563 42.41648438 -10.67578125 41.76171875 C-12.99189524 39.93989921 -12.99189524 39.93989921 -15.640625 38.41796875 C-18.56852032 36.65832305 -20.61667677 34.44145307 -23 32 C-24.98087619 30.30210613 -26.97625237 28.64508383 -29 27 C-29.89847656 26.25878906 -30.79695313 25.51757812 -31.72265625 24.75390625 C-37.21643554 20.18400063 -37.21643554 20.18400063 -43 16 C-43 14.68 -43 13.36 -43 12 C-34.56947169 9.42480449 -26.09399352 7.26152809 -17.5 5.3125 C-16.08533447 4.99116089 -16.08533447 4.99116089 -14.64208984 4.66333008 C-10.89681013 3.82476977 -7.20690314 3.029911 -3.40625 2.48046875 C-2.6121875 2.32191406 -1.818125 2.16335937 -1 2 C-0.67 1.34 -0.34 0.68 0 0 Z " fill="#2B2B2A" transform="translate(357,173)"/>
<path d="M0 0 C3.0571179 1.42077595 6.18635148 2.47765061 9.375 3.5703125 C13.5806567 5.03666981 17.5150055 6.58866801 21.4375 8.6953125 C26.46359724 11.33670462 31.65339511 12.76179889 37.12109375 14.23046875 C39.81658893 14.96387203 42.42844218 15.77267519 45.0625 16.6953125 C50.43375293 18.52891276 55.91829641 19.8281402 61.4375 21.1328125 C62.56865234 21.44605469 62.56865234 21.44605469 63.72265625 21.765625 C82.76193806 26.5338402 106.80460681 23.16060499 124.4375 15.1328125 C125.4275 15.1328125 126.4175 15.1328125 127.4375 15.1328125 C127.4375 16.1228125 127.4375 17.1128125 127.4375 18.1328125 C91.01756419 32.0552998 56.82311179 28.77697771 21.4375 13.1328125 C19.9525 12.6378125 19.9525 12.6378125 18.4375 12.1328125 C18.4375 11.4728125 18.4375 10.8128125 18.4375 10.1328125 C16.519375 9.7615625 16.519375 9.7615625 14.5625 9.3828125 C11.09416848 8.61447697 7.90893118 7.60970637 4.625 6.2578125 C3.78066406 5.91492188 2.93632813 5.57203125 2.06640625 5.21875 C0.3152174 4.4953763 -1.42724582 3.75050382 -3.16015625 2.984375 C-17.06802541 -2.53182627 -33.78064093 -1.30326845 -47.5625 4.1328125 C-50.19159262 5.62277603 -52.23701243 7.17728886 -54.5625 9.1328125 C-55.5525 9.4628125 -56.5425 9.7928125 -57.5625 10.1328125 C-58.5525 11.6178125 -58.5525 11.6178125 -59.5625 13.1328125 C-59.5625 12.1428125 -59.5625 11.1528125 -59.5625 10.1328125 C-61.2125 10.1328125 -62.8625 10.1328125 -64.5625 10.1328125 C-63.985 9.8646875 -63.4075 9.5965625 -62.8125 9.3203125 C-60.51993538 8.11034784 -58.62623711 6.69624971 -56.5625 5.1328125 C-54.93066893 4.07692181 -53.25457001 3.0891999 -51.5625 2.1328125 C-50.8509375 1.72675781 -50.139375 1.32070312 -49.40625 0.90234375 C-34.73092721 -7.01582883 -15.02334561 -7.45643992 0 0 Z " fill="#303030" transform="translate(712.5625,218.8671875)"/>
<path d="M0 0 C0.56016748 1.40945366 1.09748502 2.8280031 1.625 4.25 C1.92664063 5.03890625 2.22828125 5.8278125 2.5390625 6.640625 C3 9 3 9 1 13 C-0.98 9.04 -0.98 9.04 -3 5 C-15.96793689 4.7156847 -28.73102286 5.39945459 -41.65625 6.4296875 C-49.32822317 7.03939442 -57.00594503 7.52933366 -64.6875 8 C-66.02832509 8.0830935 -67.36914539 8.16626431 -68.70996094 8.24951172 C-74.94176147 8.63508758 -81.17401674 9.01156415 -87.40715027 9.37496948 C-108.75606651 10.60287021 -108.75606651 10.60287021 -130 13 C-129.67 15.64 -129.34 18.28 -129 21 C-128.34 21 -127.68 21 -127 21 C-122.77676538 30.41002278 -122.77676538 30.41002278 -121 35 C-121.99 34.67 -122.98 34.34 -124 34 C-124.33 34.99 -124.66 35.98 -125 37 C-126.32 36.67 -127.64 36.34 -129 36 C-128.01 35.34 -127.02 34.68 -126 34 C-126.49371094 33.07058594 -126.98742187 32.14117187 -127.49609375 31.18359375 C-128.1437692 29.93517585 -128.79087431 28.68646195 -129.4375 27.4375 C-129.76298828 26.82841797 -130.08847656 26.21933594 -130.42382812 25.59179688 C-132.60371221 21.34439386 -133.56519369 17.75837333 -134 13 C-134.66 13 -135.32 13 -136 13 C-136 11.68 -136 10.36 -136 9 C-125.56019838 8.19289472 -115.12018801 7.38857089 -104.67980957 6.58895874 C-100.73352891 6.28666717 -96.78728393 5.98398846 -92.84130859 5.67773438 C-80.75583635 4.74109833 -68.68850327 3.89767753 -56.5769043 3.39404297 C-49.53810924 3.07878138 -42.55112534 2.43728865 -35.54174805 1.73486328 C-23.70038627 0.55329573 -11.90988044 -0.20300933 0 0 Z " fill="#292928" transform="translate(481,139)"/>
<path d="M0 0 C3.5255128 0.53834646 6.96211178 1.47451934 10.41503906 2.35839844 C13.250936 3.08277771 16.09331263 3.78042598 18.93505859 4.48144531 C20.78066336 4.94491948 22.61941141 5.43550273 24.45703125 5.9296875 C44.78792361 10.99432261 68.95342937 8.67140265 88 0 C88.99 0 89.98 0 91 0 C91 0.99 91 1.98 91 3 C57.65700977 15.74624317 28.20318093 13.69139603 -5 2 C-4.360625 1.855625 -3.72125 1.71125 -3.0625 1.5625 C-1.02454854 1.18992819 -1.02454854 1.18992819 0 0 Z " fill="#4A4A48" transform="translate(749,234)"/>
<path d="M0 0 C-1.37195861 3.09709467 -2.93792501 5.15870525 -5.375 7.5 C-6.25285156 8.35078125 -6.25285156 8.35078125 -7.1484375 9.21875 C-7.75945312 9.8065625 -8.37046875 10.394375 -9 11 C-9.90298828 11.93779297 -9.90298828 11.93779297 -10.82421875 12.89453125 C-22.52725014 24.21936773 -36.77638937 34.34166685 -52 40 C-53.2539115 40.53254928 -54.5046363 41.07275727 -55.75 41.625 C-58.1607066 42.64491433 -60.56738977 43.65938373 -63 44.625 C-63.598125 44.86476563 -64.19625 45.10453125 -64.8125 45.3515625 C-71.73834163 47.40457984 -78.78254085 47.1202371 -85.9375 47.0625 C-87.53561523 47.05573242 -87.53561523 47.05573242 -89.16601562 47.04882812 C-91.77740291 47.03711787 -94.38867124 47.02071724 -97 47 C-97 46.67 -97 46.34 -97 46 C-96.07960938 45.96261719 -95.15921875 45.92523438 -94.2109375 45.88671875 C-82.31184744 45.26874157 -71.11123048 43.48347897 -60 39 C-58.9275 38.7215625 -57.855 38.443125 -56.75 38.15625 C-52.63435291 36.88725881 -49.18077186 35.15060969 -45.4375 33.0625 C-44.16575416 32.36517446 -42.89362339 31.66855042 -41.62109375 30.97265625 C-41.01370361 30.63758057 -40.40631348 30.30250488 -39.78051758 29.95727539 C-38.09789819 29.05263387 -36.38152303 28.21160841 -34.6640625 27.375 C-31.92132433 26.13035195 -31.92132433 26.13035195 -29.9375 23.9375 C-27.76626695 21.76626695 -25.88731797 20.96243932 -23 20 C-23 19.34 -23 18.68 -23 18 C-21.35648543 16.63823078 -19.68477344 15.31037934 -18 14 C-17.154375 13.13375 -16.30875 12.2675 -15.4375 11.375 C-13.29781736 9.29018101 -11.72916878 8.11188358 -9 7 C-9 6.34 -9 5.68 -9 5 C-3.64285714 0 -3.64285714 0 0 0 Z " fill="#282826" transform="translate(535,229)"/>
<path d="M0 0 C0.56016748 1.40945366 1.09748502 2.8280031 1.625 4.25 C1.92664063 5.03890625 2.22828125 5.8278125 2.5390625 6.640625 C3 9 3 9 1 13 C-0.32 10.36 -1.64 7.72 -3 5 C-14.87711826 4.73960033 -26.56310296 5.25228207 -38.40283203 6.21386719 C-50.92061984 7.20652935 -63.45043691 7.63234578 -76 8 C-76 7.67 -76 7.34 -76 7 C-77.65 6.67 -79.3 6.34 -81 6 C-81 5.67 -81 5.34 -81 5 C-80.14059814 4.9498877 -79.28119629 4.89977539 -78.39575195 4.84814453 C-63.90607554 3.995071 -49.43379357 3.13993242 -34.98974609 1.68457031 C-23.33510073 0.51511365 -11.72173779 -0.19980235 0 0 Z " fill="#191919" transform="translate(481,139)"/>
<path d="M0 0 C0.99 0.495 0.99 0.495 2 1 C0.83656388 4.49030836 0.22774394 4.75634075 -2.82421875 6.55859375 C-3.99694336 7.26145508 -3.99694336 7.26145508 -5.19335938 7.97851562 C-6.01642578 8.45998047 -6.83949219 8.94144531 -7.6875 9.4375 C-9.29621985 10.39344339 -10.90430568 11.35045464 -12.51171875 12.30859375 C-13.2804834 12.76347168 -14.04924805 13.21834961 -14.84130859 13.68701172 C-16.75859972 14.85317228 -18.61062553 16.07351848 -20.45703125 17.34765625 C-23 19 -23 19 -25 19 C-25.495 20.485 -25.495 20.485 -26 22 C-27.64233398 23.04321289 -27.64233398 23.04321289 -29.74609375 23.97265625 C-30.87821289 24.48602539 -30.87821289 24.48602539 -32.03320312 25.00976562 C-32.82662109 25.35716797 -33.62003906 25.70457031 -34.4375 26.0625 C-36.00042782 26.7578434 -37.56170855 27.4569041 -39.12109375 28.16015625 C-39.8164624 28.46574463 -40.51183105 28.77133301 -41.22827148 29.08618164 C-43.18402222 29.98115264 -43.18402222 29.98115264 -45 32 C-60.37099929 39.42048242 -76.10920603 42.40537906 -93 42 C-93 41.67 -93 41.34 -93 41 C-91.21722656 40.79697266 -91.21722656 40.79697266 -89.3984375 40.58984375 C-79.7287987 39.3768243 -70.49419755 37.54863188 -61.1875 34.625 C-59.82020752 34.20528931 -59.82020752 34.20528931 -58.42529297 33.77709961 C-52.79861806 31.93233094 -48.66722684 29.63734133 -44 26 C-40.14120079 23.80578084 -38.49363193 23 -34 23 C-34 22.34 -34 21.68 -34 21 C-33.113125 20.505 -32.22625 20.01 -31.3125 19.5 C-24.1116728 15.37904467 -17.03681432 11.02269919 -10.1171875 6.4453125 C-9.48176025 6.02725342 -8.84633301 5.60919434 -8.19165039 5.1784668 C-6.9544139 4.3614117 -5.72167002 3.53750596 -4.49389648 2.70629883 C-3.03408217 1.74368443 -1.52070406 0.86321695 0 0 Z " fill="#252523" transform="translate(529,220)"/>
<path d="M0 0 C0 0.66 0 1.32 0 2 C1.24910156 2.39832031 1.24910156 2.39832031 2.5234375 2.8046875 C6 4 6 4 9.5390625 5.5078125 C24.20951201 11.49248223 42.88850478 13.24393384 58 8 C61.375 7.875 61.375 7.875 64 8 C64 8.99 64 9.98 64 11 C51.03439344 17.36906989 33.83859177 17.03928194 20.125 13.25 C18.0688857 12.54056589 16.02490797 11.79413507 14 11 C13.10539063 10.67644531 12.21078125 10.35289062 11.2890625 10.01953125 C6.10008608 8.06368629 1.20387197 5.63289967 -3.7265625 3.10546875 C-6.41266972 1.79933758 -9.13251315 0.83006198 -12 0 C-12 -0.33 -12 -0.66 -12 -1 C-7.28357961 -1.96472235 -4.30507144 -2.15253572 0 0 Z " fill="#1E1E1D" transform="translate(660,234)"/>
<path d="M0 0 C3.61097716 1.20365905 3.87109031 2.00042499 5.625 5.25 C6.05039062 6.01828125 6.47578125 6.7865625 6.9140625 7.578125 C8.02632897 10.05871929 8.5728434 12.32315197 9 15 C9.66 15 10.32 15 11 15 C14 19.38461538 14 19.38461538 14 22 C14.66 22 15.32 22 16 22 C16.66 24.31 17.32 26.62 18 29 C18.66 29 19.32 29 20 29 C23 34.75 23 34.75 23 37 C23.66 37 24.32 37 25 37 C26.64471231 38.94539098 28.17489412 40.89297327 29.6875 42.9375 C30.58424878 44.13049906 31.48138648 45.32320587 32.37890625 46.515625 C32.82121582 47.10666016 33.26352539 47.69769531 33.71923828 48.30664062 C36.02256957 51.35199058 38.42578843 54.31912434 40.8203125 57.29296875 C42 59 42 59 42 61 C42.99 61.33 43.98 61.66 45 62 C46.60546875 63.84765625 46.60546875 63.84765625 48.1875 66.0625 C48.71730469 66.79597656 49.24710938 67.52945313 49.79296875 68.28515625 C50.19128906 68.85105469 50.58960938 69.41695313 51 70 C50.01 70.33 49.02 70.66 48 71 C46.66072279 69.54712339 45.32873153 68.08752741 44 66.625 C43.2575 65.81289062 42.515 65.00078125 41.75 64.1640625 C40 62 40 62 40 60 C39.34 60 38.68 60 38 60 C34 55.52941176 34 55.52941176 34 53 C33.34 53 32.68 53 32 53 C28.24390114 49.86991761 26.33873705 46.20972669 24 42 C23.34 41.34 22.68 40.68 22 40 C22 39.01 22 38.02 22 37 C21.34 37 20.68 37 20 37 C15.74356886 31.80766684 12.70923919 25.67736381 9.5859375 19.76953125 C7.96019662 16.93049115 6.13847692 14.37386487 4.1875 11.75 C1.2586557 7.71154949 0.1081259 4.97379118 0 0 Z " fill="#1C1C1B" transform="translate(482,147)"/>
<path d="M0 0 C2.97 0 5.94 0 9 0 C9 29.37 9 58.74 9 89 C8.67 89 8.34 89 8 89 C7.67 94.61 7.34 100.22 7 106 C6.67 106 6.34 106 6 106 C6 71.68 6 37.36 6 2 C6.66 1.67 7.32 1.34 8 1 C5.36 1 2.72 1 0 1 C0 0.67 0 0.34 0 0 Z " fill="#090909" transform="translate(707,310)"/>
<path d="M0 0 C4.962499 -0.397868 7.2213667 0.3965819 11.125 3.4375 C14.08170935 5.71720581 16.27719809 7.39097019 20 8 C20 8.66 20 9.32 20 10 C20.845625 10.268125 21.69125 10.53625 22.5625 10.8125 C26 12 26 12 29.1875 13.5 C33.89551467 15.58891642 38.94170921 16.22250503 44 17 C44 17.66 44 18.32 44 19 C50.6 19.33 57.2 19.66 64 20 C64 20.33 64 20.66 64 21 C67.96 21 71.92 21 76 21 C68.32855659 26.1142956 53.03455817 23.846809 44.20703125 22.27734375 C37.53282648 20.82370226 31.33504018 18.56925705 25.3515625 15.27734375 C22.81014078 13.89687049 20.21929532 12.7662994 17.5625 11.625 C2.4074862 4.8149724 2.4074862 4.8149724 0 0 Z " fill="#3A3A39" transform="translate(380,240)"/>
<path d="M0 0 C3.24616709 0.77203275 5.97437233 2.24494714 8.90869141 3.81103516 C24.07094691 11.32865003 40.43417483 12.16695274 57.09619141 12.49853516 C57.09619141 12.82853516 57.09619141 13.15853516 57.09619141 13.49853516 C60.06619141 13.99353516 60.06619141 13.99353516 63.09619141 14.49853516 C63.09619141 14.82853516 63.09619141 15.15853516 63.09619141 15.49853516 C58.91528727 15.52334198 54.73442269 15.54144565 50.5534668 15.5534668 C49.13256076 15.55848081 47.71165985 15.56529368 46.29077148 15.57397461 C44.24282564 15.58616903 42.19494831 15.59179288 40.14697266 15.59619141 C38.9163208 15.60142822 37.68566895 15.60666504 36.41772461 15.61206055 C33.50399521 15.51247332 30.92311814 15.17652837 28.09619141 14.49853516 C28.09619141 13.83853516 28.09619141 13.17853516 28.09619141 12.49853516 C27.50555908 12.47202881 26.91492676 12.44552246 26.30639648 12.41821289 C19.27884941 11.93088372 13.32774832 10.08830252 6.78369141 7.56103516 C5.82140625 7.20074219 4.85912109 6.84044922 3.86767578 6.46923828 C-0.40992617 4.86180724 -4.66391109 3.20290497 -8.90380859 1.49853516 C-5.47815215 -0.7852358 -3.96682058 -0.61758342 0 0 Z " fill="#4E4E4D" transform="translate(395.90380859375,261.50146484375)"/>
<path d="M0 0 C-1.65 0.66 -3.3 1.32 -5 2 C-5 2.66 -5 3.32 -5 4 C-21.38071066 11 -21.38071066 11 -29 11 C-29 11.66 -29 12.32 -29 13 C-31.64 13.66 -34.28 14.32 -37 15 C-37 15.66 -37 16.32 -37 17 C-38.98 17.66 -40.96 18.32 -43 19 C-43 19.66 -43 20.32 -43 21 C-44.98 21.33 -46.96 21.66 -49 22 C-49 20.68 -49 19.36 -49 18 C-46.65269212 16.67378615 -44.29835742 15.36419801 -41.9375 14.0625 C-41.28072266 13.68931641 -40.62394531 13.31613281 -39.94726562 12.93164062 C-35.55922537 10.53226886 -31.99126862 9.40890757 -27 9 C-27 8.34 -27 7.68 -27 7 C-22.011577 4.78292311 -17.0144613 2.9009511 -11.8125 1.25 C-11.11447266 1.01667969 -10.41644531 0.78335938 -9.69726562 0.54296875 C-3.42350253 -1.4507866 -3.42350253 -1.4507866 0 0 Z " fill="#464646" transform="translate(237,226)"/>
<path d="M0 0 C4.51185917 2.25592959 6.35861604 4.75777727 9 9 C11.7149509 12.94480045 14.33731338 16.65032692 18.125 19.625 C21.1827365 22.15095624 22.82996303 24.70994395 25 28 C26.65191491 29.35156675 28.31522656 30.68962066 30 32 C30 32.66 30 33.32 30 34 C30.598125 34.268125 31.19625 34.53625 31.8125 34.8125 C34.01819033 36.00987475 35.43583187 37.04478984 37 39 C37 39.99 37 40.98 37 42 C28.11767682 38.21409176 21.04319538 29.3146209 15 22 C14.49339844 21.41992188 13.98679687 20.83984375 13.46484375 20.2421875 C10 16.24651811 10 16.24651811 10 14 C9.40703125 13.773125 8.8140625 13.54625 8.203125 13.3125 C5.38258638 11.63217912 4.37942423 9.83091887 2.75 7 C2.22921875 6.113125 1.7084375 5.22625 1.171875 4.3125 C0 2 0 2 0 0 Z " fill="#1D1D1C" transform="translate(378,206)"/>
<path d="M0 0 C0.54011719 0.38671875 1.08023438 0.7734375 1.63671875 1.171875 C-5.57480655 4.88915608 -12.77692225 8.29650374 -20.36328125 11.171875 C-21.07355469 11.460625 -21.78382813 11.749375 -22.515625 12.046875 C-23.18722656 12.315 -23.85882813 12.583125 -24.55078125 12.859375 C-25.12183594 13.09011719 -25.69289063 13.32085937 -26.28125 13.55859375 C-33.16578037 15.58649482 -40.19304349 15.29173105 -47.30078125 15.234375 C-48.89889648 15.22760742 -48.89889648 15.22760742 -50.52929688 15.22070312 C-53.14068416 15.20899287 -55.75195249 15.19259224 -58.36328125 15.171875 C-58.36328125 14.841875 -58.36328125 14.511875 -58.36328125 14.171875 C-57.44289063 14.13449219 -56.5225 14.09710938 -55.57421875 14.05859375 C-43.67512869 13.44061657 -32.47451173 11.65535397 -21.36328125 7.171875 C-20.29078125 6.90375 -19.21828125 6.635625 -18.11328125 6.359375 C-13.44123583 4.87989395 -9.40112896 2.6076922 -5.1328125 0.21875 C-2.36328125 -0.828125 -2.36328125 -0.828125 0 0 Z " fill="#2E2E2D" transform="translate(496.36328125,260.828125)"/>
<path d="M0 0 C0 0.99 0 1.98 0 3 C-3.16183016 4.15948829 -6.33019259 5.30001995 -9.5 6.4375 C-10.386875 6.76298828 -11.27375 7.08847656 -12.1875 7.42382812 C-22.25023406 11.01237667 -31.39414339 11.13529627 -42 11.0625 C-43.25167969 11.05798828 -44.50335937 11.05347656 -45.79296875 11.04882812 C-48.86202941 11.03711415 -51.93098907 11.02071073 -55 11 C-55 10.67 -55 10.34 -55 10 C-53.64551758 9.94175049 -53.64551758 9.94175049 -52.26367188 9.88232422 C-42.81279852 9.37767774 -33.78227873 8.05097889 -24.5 6.125 C-23.18242811 5.86519251 -21.86471971 5.60607634 -20.546875 5.34765625 C-14.0844855 4.03539553 -6.3559909 0 0 0 Z " fill="#313130" transform="translate(840,234)"/>
<path d="M0 0 C10.58413162 0.6350479 20.33762351 4.9567405 29.60546875 9.875 C32.97755384 11.45927489 36.45196607 12.35819466 40.06640625 13.2265625 C40.70449219 13.48179687 41.34257813 13.73703125 42 14 C42.495 15.485 42.495 15.485 43 17 C37.02006844 16.60676187 32.40486986 15.59433753 27 13 C26.01 12.67 25.02 12.34 24 12 C24 11.34 24 10.68 24 10 C22.72125 9.7525 21.4425 9.505 20.125 9.25 C13.07002612 7.68099161 5.95752277 5.17026594 0 1 C0 0.67 0 0.34 0 0 Z " fill="#393939" transform="translate(707,219)"/>
<path d="M0 0 C1.9609375 0.12890625 1.9609375 0.12890625 4 1 C5.4140625 2.77734375 5.4140625 2.77734375 6.625 4.9375 C7.98511175 7.32419292 9.04330487 9.04330487 11 11 C11.15726562 11.63164062 11.31453125 12.26328125 11.4765625 12.9140625 C12.05971637 15.2379742 12.91622696 16.49185662 14.375 18.375 C16.65858195 21.43289997 18.29214655 24.5842931 20 28 C21.56102491 29.81554159 21.56102491 29.81554159 23 31 C22.67 31.66 22.34 32.32 22 33 C20.1875 32.8125 20.1875 32.8125 18 32 C15 27.82142857 15 27.82142857 15 25 C14.01 24.67 13.02 24.34 12 24 C10.96898053 21.68020619 9.97063483 19.34570085 9 17 C8.525625 16.53464844 8.05125 16.06929687 7.5625 15.58984375 C4.9776841 12.95979357 3.80266537 9.59812537 2.28125 6.27734375 C1.06770829 3.71784646 1.06770829 3.71784646 -2 2 C-1.34 1.34 -0.68 0.68 0 0 Z " fill="#2B2B2A" transform="translate(358,175)"/>
<path d="M0 0 C3.61097716 1.20365905 3.87109031 2.00042499 5.625 5.25 C6.05039062 6.01828125 6.47578125 6.7865625 6.9140625 7.578125 C8.02632897 10.05871929 8.5728434 12.32315197 9 15 C9.66 15 10.32 15 11 15 C14 19.38461538 14 19.38461538 14 22 C14.66 22 15.32 22 16 22 C16.66 24.31 17.32 26.62 18 29 C18.66 29 19.32 29 20 29 C20.66 30.65 21.32 32.3 22 34 C21.01 34 20.02 34 19 34 C15.07757482 29.87770602 12.34473405 24.79858365 9.4375 19.9375 C8.47977872 18.34129787 7.5202025 16.74620695 6.55859375 15.15234375 C6.13892334 14.45101318 5.71925293 13.74968262 5.28686523 13.02709961 C4.01820591 10.94808581 4.01820591 10.94808581 2.38305664 8.97485352 C0.40097086 6.14465195 0.32538278 3.38398087 0 0 Z " fill="#363634" transform="translate(482,147)"/>
<path d="M0 0 C0.66 0 1.32 0 2 0 C2.02469081 4.3782512 2.04285557 8.75646567 2.05493164 13.13476562 C2.05996514 14.62468166 2.06679242 16.11459274 2.07543945 17.60449219 C2.08754805 19.74415304 2.09323807 21.88374868 2.09765625 24.0234375 C2.10289307 25.31169434 2.10812988 26.59995117 2.11352539 27.92724609 C2 31 2 31 1 33 C0.76725791 35.87910588 0.58027243 38.74146495 0.4375 41.625 C0.39431641 42.42679687 0.35113281 43.22859375 0.30664062 44.0546875 C0.20048543 46.0362511 0.09973145 48.01810271 0 50 C-0.33 50 -0.66 50 -1 50 C-1.02526838 43.03996553 -1.04283222 36.0799428 -1.05493164 29.11987305 C-1.05997341 26.75007688 -1.06680665 24.38028385 -1.07543945 22.01049805 C-1.0875119 18.61245961 -1.09322971 15.21446215 -1.09765625 11.81640625 C-1.10281754 10.74975235 -1.10797882 9.68309845 -1.11329651 8.5841217 C-1.11337204 7.60318039 -1.11344757 6.62223907 -1.11352539 5.61157227 C-1.115746 4.74331314 -1.11796661 3.87505402 -1.12025452 2.98048401 C-1 1 -1 1 0 0 Z " fill="#F8F8F7" transform="translate(818,376)"/>
<path d="M0 0 C2.0625 0.4375 2.0625 0.4375 4 1 C-4.63653705 6.4893244 -13.12308185 8.91106395 -23 11 C-23.82113281 11.19851563 -24.64226562 11.39703125 -25.48828125 11.6015625 C-28.93113475 12.14770722 -32.33799749 12.10572348 -35.8125 12.0625 C-36.50537109 12.05798828 -37.19824219 12.05347656 -37.91210938 12.04882812 C-39.60811068 12.03713156 -41.30406703 12.01919924 -43 12 C-43 11.67 -43 11.34 -43 11 C-41.81148438 10.86464844 -40.62296875 10.72929687 -39.3984375 10.58984375 C-18.32296175 8.6016124 -18.32296175 8.6016124 0 0 Z " fill="#2B2B2A" transform="translate(479,250)"/>
<path d="M0 0 C0 0.66 0 1.32 0 2 C6.6 2.33 13.2 2.66 20 3 C20 3.33 20 3.66 20 4 C23.96 4 27.92 4 32 4 C27.49092568 7.00604954 23.12311832 6.38229425 17.8125 6.375 C16.7392749 6.37483887 15.6660498 6.37467773 14.56030273 6.37451172 C5.68447242 6.2483497 -2.674625 5.23567766 -11 2 C-11.33 1.34 -11.66 0.68 -12 0 C-7.91556885 -1.53166168 -4.20544343 -0.63081652 0 0 Z " fill="#4D4D4C" transform="translate(424,257)"/>
<path d="M0 0 C3.63 0 7.26 0 11 0 C11 0.33 11 0.66 11 1 C6.545 1.495 6.545 1.495 2 2 C2.33 4.64 2.66 7.28 3 10 C3.66 10 4.32 10 5 10 C9.22323462 19.41002278 9.22323462 19.41002278 11 24 C10.01 23.67 9.02 23.34 8 23 C7.67 23.99 7.34 24.98 7 26 C5.68 25.67 4.36 25.34 3 25 C3.99 24.34 4.98 23.68 6 23 C5.48308594 22.09378906 4.96617187 21.18757813 4.43359375 20.25390625 C-2.13852619 8.26896792 -2.13852619 8.26896792 0 0 Z " fill="#4F4F4E" transform="translate(349,150)"/>
<path d="M0 0 C3.24936597 0.62319726 5.41296102 1.76603135 8.1171875 3.65234375 C8.88933594 4.18150391 9.66148437 4.71066406 10.45703125 5.25585938 C12.0619141 6.3720178 13.6660878 7.48919663 15.26953125 8.60742188 C19.46617074 11.48082812 23.09226832 13.51070406 28 15 C28.875 17.125 28.875 17.125 29 19 C26.69 19.33 24.38 19.66 22 20 C22 18.35 22 16.7 22 15 C21.21625 14.855625 20.4325 14.71125 19.625 14.5625 C17 14 17 14 15 13 C15 12.34 15 11.68 15 11 C14.27296875 10.73058594 13.5459375 10.46117187 12.796875 10.18359375 C10.05588448 9.02364944 7.73134626 7.69868973 5.25 6.0625 C4.47140625 5.55847656 3.6928125 5.05445313 2.890625 4.53515625 C1 3 1 3 0 0 Z " fill="#262625" transform="translate(625,214)"/>
<path d="M0 0 C0 0.99 0 1.98 0 3 C-11.39743914 8.59874204 -23.63772009 7.38988268 -36 7 C-36 6.67 -36 6.34 -36 6 C-26.1 5.505 -26.1 5.505 -16 5 C-21.61 4.67 -27.22 4.34 -33 4 C-33 3.67 -33 3.34 -33 3 C-32.09290283 2.970271 -32.09290283 2.970271 -31.16748047 2.93994141 C-28.40291491 2.84413701 -25.63904826 2.73468445 -22.875 2.625 C-21.44800781 2.57859375 -21.44800781 2.57859375 -19.9921875 2.53125 C-13.08287073 2.2433618 -6.82872354 -0.32517731 0 0 Z " fill="#5F5F5E" transform="translate(724,242)"/>
<path d="M0 0 C-2.42038229 2.83894927 -2.81489719 2.98353514 -6.82885742 3.34057617 C-8.4211401 3.33982757 -10.01347511 3.32331595 -11.60546875 3.29296875 C-12.34945923 3.28994751 -13.09344971 3.28692627 -13.85998535 3.28381348 C-16.63596492 3.26813157 -19.41174656 3.22624739 -22.1875 3.1875 C-28.395625 3.125625 -34.60375 3.06375 -41 3 C-41 17.52 -41 32.04 -41 47 C-41.33 47 -41.66 47 -42 47 C-42 32.15 -42 17.3 -42 2 C-26.875 1.5625 -26.875 1.5625 -22.13623047 1.43188477 C-20.89244629 1.39377686 -19.64866211 1.35566895 -18.3671875 1.31640625 C-17.09987793 1.27974854 -15.83256836 1.24309082 -14.52685547 1.20532227 C-9.6123556 0.91921577 -4.93738961 -0.14521734 0 0 Z " fill="#D9D9D9" transform="translate(213,379)"/>
<path d="M0 0 C-2.95199222 2.34361911 -5.96309133 4.09278947 -9.3125 5.8125 C-14.16363405 8.40020386 -17.91598793 11.3504573 -22 15 C-22.66 15 -23.32 15 -24 15 C-23.71125 14.443125 -23.4225 13.88625 -23.125 13.3125 C-21.92661791 10.98395537 -21.92661791 10.98395537 -21.125 8.3125 C-20 6 -20 6 -17.875 5.1875 C-17.25625 5.125625 -16.6375 5.06375 -16 5 C-16 4.34 -16 3.68 -16 3 C-10.28264895 0.54970669 -6.20970773 -0.33266291 0 0 Z " fill="#181817" transform="translate(570,203)"/>
<path d="M0 0 C0.33 0 0.66 0 1 0 C1.04976354 5.3893909 1.08589047 10.77864544 1.10986328 16.16821289 C1.11986648 17.99831475 1.13347335 19.82840084 1.15087891 21.65844727 C1.17537891 24.30228588 1.18654013 26.94591157 1.1953125 29.58984375 C1.20563507 30.39646957 1.21595764 31.2030954 1.22659302 32.03416443 C1.22766887 37.5901768 0.41191385 42.62975449 -1 48 C-1.33 48 -1.66 48 -2 48 C-2 37.44 -2 26.88 -2 16 C-1.67 16 -1.34 16 -1 16 C-0.67 10.72 -0.34 5.44 0 0 Z " fill="#F8F8F8" transform="translate(819,328)"/>
<path d="M0 0 C-1.65 0.66 -3.3 1.32 -5 2 C-5 2.66 -5 3.32 -5 4 C-18.92733529 9.98962645 -18.92733529 9.98962645 -24 10 C-25.75390625 8.53515625 -25.75390625 8.53515625 -27 7 C-22.011577 4.78292311 -17.0144613 2.9009511 -11.8125 1.25 C-11.11447266 1.01667969 -10.41644531 0.78335938 -9.69726562 0.54296875 C-3.42350253 -1.4507866 -3.42350253 -1.4507866 0 0 Z " fill="#3C3C3C" transform="translate(237,226)"/>
<path d="M0 0 C21.78 0 43.56 0 66 0 C66.99 2.97 66.99 2.97 68 6 C67.01 5.505 67.01 5.505 66 5 C66 4.34 66 3.68 66 3 C65.34 3 64.68 3 64 3 C64 2.34 64 1.68 64 1 C42.88 1.33 21.76 1.66 0 2 C0 1.34 0 0.68 0 0 Z M63 3 C63.99 3.495 63.99 3.495 65 4 C64.67 4.66 64.34 5.32 64 6 C63.67 5.01 63.34 4.02 63 3 Z " fill="#BFBFBF" transform="translate(267,394)"/>
<path d="M0 0 C0.66 0.33 1.32 0.66 2 1 C1.72973633 2.87060547 1.72973633 2.87060547 1 5 C-0.6105957 6.15673828 -0.6105957 6.15673828 -2.67578125 7.0703125 C-3.42150391 7.40933594 -4.16722656 7.74835938 -4.93554688 8.09765625 C-5.71994141 8.43667969 -6.50433594 8.77570313 -7.3125 9.125 C-8.85029774 9.815021 -10.38805931 10.5051226 -11.92578125 11.1953125 C-12.61067627 11.49453613 -13.29557129 11.79375977 -14.0012207 12.10205078 C-16.03086184 13.01386464 -18.01670132 13.99184398 -20 15 C-20.66 14.01 -21.32 13.02 -22 12 C-20.25595212 10.98965502 -18.50450439 9.99207578 -16.75 9 C-15.77546875 8.443125 -14.8009375 7.88625 -13.796875 7.3125 C-11 6 -11 6 -7 6 C-7 5.34 -7 4.68 -7 4 C-1.7265625 0.77734375 -1.7265625 0.77734375 0 0 Z " fill="#242422" transform="translate(502,237)"/>
<path d="M0 0 C0.66 0.33 1.32 0.66 2 1 C1.47678185 5.00532512 -0.39707295 6.64792782 -3.375 9.25 C-4.16648437 9.95640625 -4.95796875 10.6628125 -5.7734375 11.390625 C-8 13 -8 13 -11 13 C-11.33 11.02 -11.66 9.04 -12 7 C-11.34 7 -10.68 7 -10 7 C-10 6.34 -10 5.68 -10 5 C-8.38007835 4.13624104 -6.75388139 3.28424146 -5.125 2.4375 C-4.22007812 1.96183594 -3.31515625 1.48617187 -2.3828125 0.99609375 C-1.20332031 0.50302734 -1.20332031 0.50302734 0 0 Z " fill="#2C2C2B" transform="translate(548,209)"/>
<path d="M0 0 C-1.37195861 3.09709467 -2.93792501 5.15870525 -5.375 7.5 C-5.99246094 8.09941406 -6.60992188 8.69882813 -7.24609375 9.31640625 C-8.11427734 10.14978516 -8.11427734 10.14978516 -9 11 C-9.804375 11.804375 -10.60875 12.60875 -11.4375 13.4375 C-11.953125 13.953125 -12.46875 14.46875 -13 15 C-13.33 14.34 -13.66 13.68 -14 13 C-14.66 13 -15.32 13 -16 13 C-16.33 13.99 -16.66 14.98 -17 16 C-17.66 15.67 -18.32 15.34 -19 15 C-17.33333333 13.33333333 -15.66666667 11.66666667 -14 10 C-13.443125 9.401875 -12.88625 8.80375 -12.3125 8.1875 C-11 7 -11 7 -9 7 C-9 6.34 -9 5.68 -9 5 C-3.64285714 0 -3.64285714 0 0 0 Z " fill="#262625" transform="translate(535,229)"/>
<path d="M0 0 C0 0.66 0 1.32 0 2 C4.30322683 3.46939453 8.62297367 4.77443263 13 6 C12.67 6.99 12.34 7.98 12 9 C7.42907805 8.44904066 4.05382445 7.22137266 0 5.0625 C-3.9403134 2.97433912 -7.73449883 1.3139267 -12 0 C-12 -0.33 -12 -0.66 -12 -1 C-7.28357961 -1.96472235 -4.30507144 -2.15253572 0 0 Z " fill="#222220" transform="translate(660,234)"/>
<path d="M0 0 C4.52537991 2.26268996 6.33030729 4.75989981 9 9 C10.84392753 11.37076396 12.71964356 13.71250087 14.609375 16.046875 C16 18 16 18 16 20 C12.45566346 18.58226538 11.66193881 17.32387762 10 14 C9.38640625 13.731875 8.7728125 13.46375 8.140625 13.1875 C5.30484524 11.6143667 4.35688852 9.79176591 2.75 7 C2.22921875 6.113125 1.7084375 5.22625 1.171875 4.3125 C0 2 0 2 0 0 Z " fill="#1E1E1D" transform="translate(378,206)"/>
<path d="M0 0 C0 0.99 0 1.98 0 3 C-6.27 3 -12.54 3 -19 3 C-19.33 4.65 -19.66 6.3 -20 8 C-20.33 7.01 -20.66 6.02 -21 5 C-21.66 5 -22.32 5 -23 5 C-23 3.68 -23 2.36 -23 1 C-15.31395526 0.02840067 -7.74136601 -0.10920422 0 0 Z " fill="#363635" transform="translate(368,147)"/>
<path d="M0 0 C-1.74843118 1.12743666 -3.4988094 2.2518542 -5.25 3.375 C-6.22453125 4.00148437 -7.1990625 4.62796875 -8.203125 5.2734375 C-11 7 -11 7 -13.234375 8.0390625 C-15.34197571 9.00850118 -15.34197571 9.00850118 -17 12 C-17 11.01 -17 10.02 -17 9 C-18.65 9 -20.3 9 -22 9 C-21.4225 8.731875 -20.845 8.46375 -20.25 8.1875 C-17.95743538 6.97753534 -16.06373711 5.56343721 -14 4 C-5.30876482 -1.5713046 -5.30876482 -1.5713046 0 0 Z " fill="#303030" transform="translate(670,220)"/>
<path d="M0 0 C3.69211489 0.93446448 6.91611899 2.67682211 10.20703125 4.55859375 C9.21703125 6.04359375 9.21703125 6.04359375 8.20703125 7.55859375 C2.35043219 5.89706363 -3.25198215 4.08817459 -8.79296875 1.55859375 C-5.4063481 -0.69915335 -3.92775045 -0.59025563 0 0 Z " fill="#434342" transform="translate(395.79296875,261.44140625)"/>
<path d="M0 0 C0 0.66 0 1.32 0 2 C-3.7883838 2.72672213 -7.58100178 3.42823492 -11.375 4.125 C-12.45523438 4.33253906 -13.53546875 4.54007813 -14.6484375 4.75390625 C-15.6796875 4.94082031 -16.7109375 5.12773437 -17.7734375 5.3203125 C-19.20308838 5.58739014 -19.20308838 5.58739014 -20.66162109 5.85986328 C-21.43328613 5.9061084 -22.20495117 5.95235352 -23 6 C-23.66 5.34 -24.32 4.68 -25 4 C-22.15014214 3.12845617 -19.29662264 2.2776319 -16.4375 1.4375 C-15.63763672 1.19064453 -14.83777344 0.94378906 -14.01367188 0.68945312 C-8.88157635 -0.79780721 -5.22915401 -1.17217278 0 0 Z " fill="#282827" transform="translate(255,223)"/>
<path d="M0 0 C3.96 0 7.92 0 12 0 C14.5390625 6.640625 14.5390625 6.640625 15 9 C14.34 10.32 13.68 11.64 13 13 C11.68 10.36 10.36 7.72 9 5 C3.39 4.67 -2.22 4.34 -8 4 C-8 3.67 -8 3.34 -8 3 C-2.06 3 3.88 3 10 3 C10.33 2.34 10.66 1.68 11 1 C7.37 1 3.74 1 0 1 C0 0.67 0 0.34 0 0 Z " fill="#686867" transform="translate(469,139)"/>
<path d="M0 0 C-9.84024614 4.64632195 -17.25047813 5.66905738 -28 5 C-28 4.34 -28 3.68 -28 3 C-27.20078125 2.96261719 -26.4015625 2.92523438 -25.578125 2.88671875 C-18.57815788 2.46770663 -12.19555338 1.49146198 -5.4609375 -0.4765625 C-3 -1 -3 -1 0 0 Z " fill="#080807" transform="translate(623,251)"/>
<path d="M0 0 C4.22183809 1.40727936 4.84508756 3.83478859 6.859375 7.6328125 C8.17233374 10.35765154 9.17905935 13.08939223 10 16 C9.01 16 8.02 16 7 16 C2.66308623 11.24234087 0.2723273 6.39969165 0 0 Z " fill="#2D2D2C" transform="translate(482,147)"/>
<path d="M0 0 C1.9609375 0.12890625 1.9609375 0.12890625 4 1 C5.4140625 2.77734375 5.4140625 2.77734375 6.625 4.9375 C7.98511175 7.32419292 9.04330487 9.04330487 11 11 C10.34 11.66 9.68 12.32 9 13 C9 12.34 9 11.68 9 11 C8.34 11 7.68 11 7 11 C6.67 11.99 6.34 12.98 6 14 C5.67386719 13.30132812 5.34773438 12.60265625 5.01171875 11.8828125 C4.57472656 10.97273437 4.13773437 10.06265625 3.6875 9.125 C3.25824219 8.22007812 2.82898438 7.31515625 2.38671875 6.3828125 C1.0800612 3.73550524 1.0800612 3.73550524 -2 2 C-1.34 1.34 -0.68 0.68 0 0 Z " fill="#2F2F2D" transform="translate(358,175)"/>
<path d="M0 0 C0 0.33 0 0.66 0 1 C3.96 1.33 7.92 1.66 12 2 C12 2.33 12 2.66 12 3 C-1.365 3.495 -1.365 3.495 -15 4 C-15 3.67 -15 3.34 -15 3 C-16.65 2.67 -18.3 2.34 -20 2 C-20 1.67 -20 1.34 -20 1 C-13.29980211 0.29867087 -6.73742646 -0.11044961 0 0 Z " fill="#5C5C5B" transform="translate(420,143)"/>
<path d="M0 0 C3.51705958 0.65271556 6.89325077 1.51393024 10.3125 2.5625 C11.19550781 2.83191406 12.07851563 3.10132813 12.98828125 3.37890625 C13.65214844 3.58386719 14.31601562 3.78882813 15 4 C11.25 5.125 11.25 5.125 9 4 C9 4.66 9 5.32 9 6 C7.03964825 5.55037804 5.08175691 5.09001752 3.125 4.625 C2.03445313 4.36976563 0.94390625 4.11453125 -0.1796875 3.8515625 C-3 3 -3 3 -5 1 C-3.35 1 -1.7 1 0 1 C0 0.67 0 0.34 0 0 Z " fill="#575755" transform="translate(749,234)"/>
<path d="M0 0 C0 0.99 0 1.98 0 3 C-1.8708878 3.67812114 -3.74694293 4.3419946 -5.625 5 C-6.66914062 5.37125 -7.71328125 5.7425 -8.7890625 6.125 C-12.01774506 7.00483564 -14.67244294 7.15988262 -18 7 C-17.34 6.67 -16.68 6.34 -16 6 C-16 5.34 -16 4.68 -16 4 C-14.783125 3.71125 -13.56625 3.4225 -12.3125 3.125 C-9.81923911 2.50829236 -7.58115027 1.83246011 -5.1875 0.875 C-3 0 -3 0 0 0 Z " fill="#20201F" transform="translate(840,234)"/>
<path d="M0 0 C2 1.375 2 1.375 4 3 C4 3.66 4 4.32 4 5 C4.66 5 5.32 5 6 5 C10.89225393 10.00873617 10.89225393 10.00873617 11.3125 13.875 C11.1578125 14.926875 11.1578125 14.926875 11 16 C9.33333333 14.33333333 7.66666667 12.66666667 6 11 C5.401875 10.46375 4.80375 9.9275 4.1875 9.375 C3 8 3 8 3 5 C2.34 5 1.68 5 1 5 C0.67 3.35 0.34 1.7 0 0 Z " fill="#232322" transform="translate(501,179)"/>
<path d="M0 0 C0 0.33 0 0.66 0 1 C2.64 1.33 5.28 1.66 8 2 C8 2.33 8 2.66 8 3 C-1.405 3.495 -1.405 3.495 -11 4 C-11 3.67 -11 3.34 -11 3 C-13.64 2.67 -16.28 2.34 -19 2 C-19 1.67 -19 1.34 -19 1 C-12.62641289 0.03794912 -6.44070471 -0.10655578 0 0 Z " fill="#555555" transform="translate(451,141)"/>
<path d="M0 0 C4.21746325 -0.0989211 8.43431121 -0.17149012 12.65258789 -0.21972656 C14.08727786 -0.23983525 15.52188593 -0.26712673 16.95629883 -0.30175781 C19.01924839 -0.3503146 21.08111431 -0.37297406 23.14453125 -0.390625 C24.38565674 -0.41157227 25.62678223 -0.43251953 26.90551758 -0.45410156 C30 0 30 0 31.9284668 2.02441406 C32.45887573 3.0023291 32.45887573 3.0023291 33 4 C32.67 4.66 32.34 5.32 32 6 C31.01 6 30.02 6 29 6 C28.34 4.35 27.68 2.7 27 1 C18.09 1 9.18 1 0 1 C0 0.67 0 0.34 0 0 Z " fill="#E6E6E5" transform="translate(607,378)"/>
<path d="M0 0 C-0.33 0.99 -0.66 1.98 -1 3 C-9.40371809 5.21462689 -17.3725342 5.20705918 -26 5 C-26 4.67 -26 4.34 -26 4 C-25.40985107 3.91435791 -24.81970215 3.82871582 -24.21166992 3.74047852 C-21.53652607 3.35064401 -18.86201571 2.95661986 -16.1875 2.5625 C-15.25873047 2.42779297 -14.32996094 2.29308594 -13.37304688 2.15429688 C-12.48037109 2.02216797 -11.58769531 1.89003906 -10.66796875 1.75390625 C-9.43469849 1.57323608 -9.43469849 1.57323608 -8.17651367 1.38891602 C-0.40364093 0 -0.40364093 0 0 0 Z " fill="#0D0D0C" transform="translate(462,257)"/>
<path d="M0 0 C6.22725067 1.65391768 11.53962558 3.55759004 17 7 C17 7.66 17 8.32 17 9 C10.77012202 8.49487476 5.54525767 5.67395877 0 3 C0 2.01 0 1.02 0 0 Z " fill="#222221" transform="translate(373,253)"/>
<path d="M0 0 C0.66 0.33 1.32 0.66 2 1 C0.69983239 4.90050282 -0.76003913 5.31143857 -4.3125 7.25 C-5.76076172 8.06210938 -5.76076172 8.06210938 -7.23828125 8.890625 C-10.26058511 10.10467634 -11.02484595 9.92692842 -14 9 C-11.71439353 7.4693001 -9.42237333 5.95034956 -7.125 4.4375 C-6.14853516 3.78104492 -6.14853516 3.78104492 -5.15234375 3.11132812 C-3.47374503 2.01245164 -1.73976613 0.9992182 0 0 Z " fill="#343432" transform="translate(529,220)"/>
<path d="M0 0 C0.76570312 0.15339844 1.53140625 0.30679688 2.3203125 0.46484375 C7.16558268 1.1695168 11.98648739 1.36046797 16.875 1.5625 C18.33679688 1.62727539 18.33679688 1.62727539 19.828125 1.69335938 C22.21862802 1.79882274 24.60922444 1.90094175 27 2 C27 2.33 27 2.66 27 3 C22.71 3 18.42 3 14 3 C14 3.66 14 4.32 14 5 C8.67061191 4.66328485 4.37173367 4.384568 0 1 C0 0.67 0 0.34 0 0 Z " fill="#30302E" transform="translate(581,251)"/>
<path d="M0 0 C0 0.33 0 0.66 0 1 C-12.375 1.495 -12.375 1.495 -25 2 C-25 1.34 -25 0.68 -25 0 C-17.28583967 -2.57138678 -7.94952344 -1.07790148 0 0 Z " fill="#171715" transform="translate(596,201)"/>
<path d="M0 0 C0.90105469 0.00902344 1.80210937 0.01804687 2.73046875 0.02734375 C3.41753906 0.03894531 4.10460937 0.05054688 4.8125 0.0625 C2.39914145 2.47585855 0.74787699 3.0191912 -2.6394043 3.17602539 C-3.58726807 3.17078857 -4.53513184 3.16555176 -5.51171875 3.16015625 C-6.53974609 3.15693359 -7.56777344 3.15371094 -8.62695312 3.15039062 C-9.69880859 3.14201172 -10.77066406 3.13363281 -11.875 3.125 C-12.95845703 3.12048828 -14.04191406 3.11597656 -15.15820312 3.11132812 C-17.83469085 3.09953743 -20.51106777 3.08308063 -23.1875 3.0625 C-23.1875 2.7325 -23.1875 2.4025 -23.1875 2.0625 C-22.13949219 2.00191406 -21.09148437 1.94132812 -20.01171875 1.87890625 C-18.63279952 1.79448262 -17.25389395 1.70983553 -15.875 1.625 C-15.18470703 1.58568359 -14.49441406 1.54636719 -13.78320312 1.50585938 C-9.02353624 1.2069431 -4.77019201 -0.06195055 0 0 Z " fill="#0A0A0A" transform="translate(461.1875,272.9375)"/>
<path d="M0 0 C0.66 0.33 1.32 0.66 2 1 C1.67 2.32 1.34 3.64 1 5 C-0.65 5.33 -2.3 5.66 -4 6 C-4 6.66 -4 7.32 -4 8 C-6.3125 8.625 -6.3125 8.625 -9 9 C-9.99 8.34 -10.98 7.68 -12 7 C-10.04754815 5.80285445 -8.08785003 4.61751926 -6.125 3.4375 C-5.03445313 2.77621094 -3.94390625 2.11492187 -2.8203125 1.43359375 C-1.88960937 0.96050781 -0.95890625 0.48742187 0 0 Z " fill="#424241" transform="translate(630,243)"/>
<path d="M0 0 C6.68993219 0.53951066 12.63460728 1.88706171 19 4 C19 4.66 19 5.32 19 6 C16.20763552 5.52464031 13.41615009 5.0448933 10.625 4.5625 C9.8309375 4.42779297 9.036875 4.29308594 8.21875 4.15429688 C2.2265625 3.11328125 2.2265625 3.11328125 0 2 C0 1.34 0 0.68 0 0 Z " fill="#161614" transform="translate(299,224)"/>
<path d="M0 0 C4.78642607 0.5746621 8.53788787 1.98245643 12.875 4.0625 C14.60363281 4.88427734 14.60363281 4.88427734 16.3671875 5.72265625 C17.67042969 6.35494141 17.67042969 6.35494141 19 7 C14.3231232 8.55895893 10.49233137 6.72031915 6 5 C3.76883806 3.81209256 1.99535823 2.57528281 0 1 C0 0.67 0 0.34 0 0 Z " fill="#1B1B19" transform="translate(398,250)"/>
<path d="M0 0 C-3 2 -3 2 -6 2 C-6 2.66 -6 3.32 -6 4 C-8.97 4.66 -11.94 5.32 -15 6 C-14 3 -14 3 -11.1875 1.375 C-6.91003844 -0.4701795 -4.50610819 -1.44839192 0 0 Z " fill="#2D2D2C" transform="translate(214,235)"/>
<path d="M0 0 C2.7491995 4.12379925 2.33087475 7.40641673 2.3125 12.25 C2.32861328 13.08402344 2.34472656 13.91804688 2.36132812 14.77734375 C2.36565045 20.28398423 1.51300663 24.09333797 -1 29 C-2.17153267 25.48540199 -1.43611682 23.74896702 -0.48925781 20.2734375 C0.3522726 16.3630926 0.20929723 12.48142301 0.125 8.5 C0.11597656 7.67757813 0.10695313 6.85515625 0.09765625 6.0078125 C0.07436865 4.00507917 0.03850959 2.00249846 0 0 Z " fill="#818180" transform="translate(670,331)"/>
<path d="M0 0 C5.86809507 0.52393706 10.54873741 1.76108858 16 4 C16 4.66 16 5.32 16 6 C9.79011871 5.55643705 5.39459439 4.08467498 0 1 C0 0.67 0 0.34 0 0 Z " fill="#212121" transform="translate(707,219)"/>
<path d="M0 0 C-3.82941989 3.32993034 -8.37522222 5.05324525 -13 7 C-13.66 6.34 -14.32 5.68 -15 5 C-14.01 4.67 -13.02 4.34 -12 4 C-12 3.34 -12 2.68 -12 2 C-8.09971775 -0.60018816 -4.52565431 -0.15085514 0 0 Z " fill="#1F1F1E" transform="translate(570,203)"/>
<path d="M0 0 C0.33 1.32 0.66 2.64 1 4 C0.21625 4.598125 -0.5675 5.19625 -1.375 5.8125 C-4.14574323 7.91085249 -4.14574323 7.91085249 -6 11 C-6.66 11 -7.32 11 -8 11 C-9.62514468 12.45833358 -9.62514468 12.45833358 -11 14 C-11.99 13.67 -12.98 13.34 -14 13 C-8.25 8 -8.25 8 -6 8 C-5.7525 7.4225 -5.505 6.845 -5.25 6.25 C-3.83316683 3.6997003 -2.12372463 1.98214299 0 0 Z " fill="#D7D7D5" transform="translate(531,234)"/>
<path d="M0 0 C0.66 0 1.32 0 2 0 C0.47940093 3.88014936 -1.86078531 5.73906562 -5.125 8.25 C-6.03507813 8.95640625 -6.94515625 9.6628125 -7.8828125 10.390625 C-8.58148438 10.92171875 -9.28015625 11.4528125 -10 12 C-10.33 11.34 -10.66 10.68 -11 10 C-10.34 9.01 -9.68 8.02 -9 7 C-8.34 7 -7.68 7 -7 7 C-7 6.34 -7 5.68 -7 5 C-6.030625 4.54625 -5.06125 4.0925 -4.0625 3.625 C-0.92920418 2.34213779 -0.92920418 2.34213779 0 0 Z " fill="#1F1F1E" transform="translate(519,242)"/>
<path d="M0 0 C3.465 1.98 3.465 1.98 7 4 C7 4.66 7 5.32 7 6 C7.66 6 8.32 6 9 6 C9.33 6.99 9.66 7.98 10 9 C9.01 9.33 8.02 9.66 7 10 C5.17578125 8.92578125 5.17578125 8.92578125 3.3125 7.3125 C2.68988281 6.79300781 2.06726563 6.27351562 1.42578125 5.73828125 C0 4 0 4 0 0 Z " fill="#373737" transform="translate(321,190)"/>
<path d="M0 0 C2.60557491 0.28184585 5.20900398 0.57502711 7.8125 0.875 C8.55048828 0.95363281 9.28847656 1.03226563 10.04882812 1.11328125 C13.71506181 1.54460286 15.87951745 1.9196783 19 4 C14.62065881 3.48041715 10.31196609 2.94324258 6 2 C6 2.66 6 3.32 6 4 C2.37 3.67 -1.26 3.34 -5 3 C-5 2.67 -5 2.34 -5 2 C-3.35 1.67 -1.7 1.34 0 1 C0 0.67 0 0.34 0 0 Z " fill="#595957" transform="translate(293,222)"/>
<path d="M0 0 C0.99 0.33 1.98 0.66 3 1 C2.67 1.99 2.34 2.98 2 4 C-0.546875 4.94921875 -0.546875 4.94921875 -3.75 5.6875 C-4.79671875 5.93886719 -5.8434375 6.19023437 -6.921875 6.44921875 C-9.70277496 6.94681633 -12.18542538 7.10945568 -15 7 C-11.27390208 4.51593472 -8.18797293 3.18276507 -3.75 2.5 C-2.38875 2.2525 -2.38875 2.2525 -1 2 C-0.67 1.34 -0.34 0.68 0 0 Z " fill="#0D0D0C" transform="translate(357,173)"/>
<path d="M0 0 C0.66 0.33 1.32 0.66 2 1 C0.02 1.99 -1.96 2.98 -4 4 C-0.535 3.505 -0.535 3.505 3 3 C1.02528784 5.67166939 -0.18834025 6.04708506 -3.5 6.875 C-7 7 -7 7 -8.9375 5.5625 C-9.4634375 4.7890625 -9.4634375 4.7890625 -10 4 C-3.375 1.125 -3.375 1.125 0 0 Z " fill="#848484" transform="translate(220,229)"/>
<path d="M0 0 C2.31 0 4.62 0 7 0 C7 1.98 7 3.96 7 6 C4.36 5.67 1.72 5.34 -1 5 C-0.67 3.35 -0.34 1.7 0 0 Z " fill="#121211" transform="translate(531,217)"/>
<path d="M0 0 C5.13503344 0.64187918 9.9943454 1.68272247 15 3 C14.01 4.485 14.01 4.485 13 6 C11.39253944 5.57476184 9.78910164 5.13429874 8.1875 4.6875 C7.29417969 4.44386719 6.40085937 4.20023437 5.48046875 3.94921875 C2.94752262 2.9799181 1.7283504 2.04990396 0 0 Z " fill="#232322" transform="translate(403,267)"/>
<path d="M0 0 C0.66 0.33 1.32 0.66 2 1 C1.04882866 2.1725131 0.08882991 3.33787015 -0.875 4.5 C-1.67550781 5.47453125 -1.67550781 5.47453125 -2.4921875 6.46875 C-2.98976563 6.9740625 -3.48734375 7.479375 -4 8 C-4.66 8 -5.32 8 -6 8 C-6.33 8.99 -6.66 9.98 -7 11 C-7.66 11 -8.32 11 -9 11 C-9 10.34 -9 9.68 -9 9 C-9.66 8.67 -10.32 8.34 -11 8 C-7.37 5.36 -3.74 2.72 0 0 Z " fill="#D1D1CF" transform="translate(509,253)"/>
<path d="M0 0 C1.32 0 2.64 0 4 0 C4 0.66 4 1.32 4 2 C4.66 2 5.32 2 6 2 C6 2.66 6 3.32 6 4 C7.32 4.66 8.64 5.32 10 6 C8 7 8 7 5.8359375 6.44140625 C5.02382813 6.15136719 4.21171875 5.86132812 3.375 5.5625 C2.55773437 5.27503906 1.74046875 4.98757812 0.8984375 4.69140625 C0.27195312 4.46324219 -0.35453125 4.23507813 -1 4 C-0.34 3.34 0.32 2.68 1 2 C0.67 1.34 0.34 0.68 0 0 Z " fill="#4E4E4C" transform="translate(346,239)"/>
<path d="M0 0 C0.625 2.5625 0.625 2.5625 1 5 C-1.9719385 3.87548273 -4.33440687 2.77706209 -7 1 C-8.65549531 0.61500109 -10.3222433 0.27206865 -12 0 C-12 -0.33 -12 -0.66 -12 -1 C-7.28357961 -1.96472235 -4.30507144 -2.15253572 0 0 Z " fill="#515150" transform="translate(660,234)"/>
<path d="M0 0 C4.455 0.99 4.455 0.99 9 2 C9.33 3.32 9.66 4.64 10 6 C7.69 6.33 5.38 6.66 3 7 C3 5.35 3 3.7 3 2 C2.01 1.67 1.02 1.34 0 1 C0 0.67 0 0.34 0 0 Z " fill="#0C0C0C" transform="translate(644,227)"/>
<path d="M0 0 C1.485 0.99 1.485 0.99 3 2 C3.29296875 4.6015625 3.29296875 4.6015625 3.1875 7.625 C3.16042969 8.62789063 3.13335938 9.63078125 3.10546875 10.6640625 C3.07066406 11.43492187 3.03585937 12.20578125 3 13 C2.01 13.33 1.02 13.66 0 14 C0 9.38 0 4.76 0 0 Z " fill="#F7F7F7" transform="translate(817,310)"/>
<path d="M0 0 C7.625 0.875 7.625 0.875 11 2 C11.33 2.99 11.66 3.98 12 5 C10.56163249 4.88541307 9.12429034 4.75790884 7.6875 4.625 C6.88699219 4.55539063 6.08648438 4.48578125 5.26171875 4.4140625 C3 4 3 4 0 2 C0 1.34 0 0.68 0 0 Z " fill="#272726" transform="translate(738,231)"/>
<path d="M0 0 C-0.92786789 1.00894372 -1.86768433 2.00690907 -2.8125 3 C-3.59560547 3.8353125 -3.59560547 3.8353125 -4.39453125 4.6875 C-6 6 -6 6 -9 6 C-9 4.68 -9 3.36 -9 2 C-5.65949265 -0.69096425 -4.02899523 -1.26551773 0 0 Z " fill="#C5C5C3" transform="translate(546,216)"/>
<path d="M0 0 C0.66 0.33 1.32 0.66 2 1 C1.875 2.875 1.875 2.875 1 5 C-2.0625 6.25 -2.0625 6.25 -5 7 C-5 6.34 -5 5.68 -5 5 C-5.66 4.67 -6.32 4.34 -7 4 C-1.7265625 0.77734375 -1.7265625 0.77734375 0 0 Z " fill="#4C4C4B" transform="translate(502,237)"/>
<path d="M0 0 C6.7281627 -0.22262303 12.53991163 0.04978464 19 2 C18.39285156 2.15082031 17.78570313 2.30164063 17.16015625 2.45703125 C15.58245865 2.85359538 14.00870777 3.26595645 12.4375 3.6875 C10 4 10 4 7 2 C4.67612053 1.60612212 2.34206251 1.26513915 0 1 C0 0.67 0 0.34 0 0 Z " fill="#494947" transform="translate(587,200)"/>
<path d="M0 0 C0.33 0.99 0.66 1.98 1 3 C-0.753686 5.17759024 -1.6477462 5.93641425 -4.4453125 6.44140625 C-5.77175781 6.50134766 -5.77175781 6.50134766 -7.125 6.5625 C-9.74150598 6.64589072 -9.74150598 6.64589072 -12 7 C-12.33 7.66 -12.66 8.32 -13 9 C-13 8.01 -13 7.02 -13 6 C-12.09507812 5.72736328 -12.09507812 5.72736328 -11.171875 5.44921875 C-5.14414802 3.58012094 -5.14414802 3.58012094 0 0 Z " fill="#A6A6A4" transform="translate(660,368)"/>
<path d="M0 0 C0.66 0 1.32 0 2 0 C2 0.66 2 1.32 2 2 C3.36125 2.37125 3.36125 2.37125 4.75 2.75 C8.10351489 4.03981342 9.67708236 5.31971042 12 8 C7.25 6.125 7.25 6.125 5 5 C4.67 5.66 4.34 6.32 4 7 C2 5.1875 2 5.1875 0 3 C0 2.01 0 1.02 0 0 Z " fill="#5B5B59" transform="translate(552,234)"/>
<path d="M0 0 C1.62600941 0.0870005 3.25089678 0.1951781 4.875 0.3125 C5.77992188 0.37050781 6.68484375 0.42851562 7.6171875 0.48828125 C10 1 10 1 12 4 C4.25 4.125 4.25 4.125 2 3 C2 2.34 2 1.68 2 1 C1.34 0.67 0.68 0.34 0 0 Z " fill="#2B2B2A" transform="translate(598,202)"/>
<path d="M0 0 C5.57142857 5.14285714 5.57142857 5.14285714 6 9 C5.01 8.67 4.02 8.34 3 8 C2.67 8.99 2.34 9.98 2 11 C0.68 10.67 -0.64 10.34 -2 10 C-1.01 9.67 -0.02 9.34 1 9 C0.67 6.03 0.34 3.06 0 0 Z " fill="#383836" transform="translate(354,165)"/>
<path d="M0 0 C0.8125 1.6875 0.8125 1.6875 1 4 C-1.3125 6.625 -1.3125 6.625 -4 9 C-4.66 9.66 -5.32 10.32 -6 11 C-8.125 10.625 -8.125 10.625 -10 10 C-9.44570313 9.52949219 -8.89140625 9.05898438 -8.3203125 8.57421875 C-7.59585937 7.95160156 -6.87140625 7.32898438 -6.125 6.6875 C-5.40570313 6.07261719 -4.68640625 5.45773437 -3.9453125 4.82421875 C-1.80820669 2.9587676 -1.80820669 2.9587676 0 0 Z " fill="#B2B2B0" transform="translate(460,363)"/>
<path d="M0 0 C1.79240663 0.11389875 3.58394835 0.24147687 5.375 0.375 C6.87160156 0.47941406 6.87160156 0.47941406 8.3984375 0.5859375 C11 1 11 1 13 3 C11.20841511 3.02696365 9.41671527 3.04637917 7.625 3.0625 C6.62726563 3.07410156 5.62953125 3.08570313 4.6015625 3.09765625 C2 3 2 3 0 2 C0 1.34 0 0.68 0 0 Z " fill="#181818" transform="translate(282,221)"/>
<path d="M0 0 C-0.99 0.33 -1.98 0.66 -3 1 C-2.67 1.66 -2.34 2.32 -2 3 C-4.70879335 4.35439668 -7.00933268 4.06501451 -10 4 C-10 3.34 -10 2.68 -10 2 C-10.66 1.67 -11.32 1.34 -12 1 C-3.96428571 -1.27678571 -3.96428571 -1.27678571 0 0 Z " fill="#4D4D4B" transform="translate(348,178)"/>
<path d="M0 0 C-1.5552912 0.70365602 -3.11964827 1.38729378 -4.6875 2.0625 C-5.55761719 2.44535156 -6.42773438 2.82820312 -7.32421875 3.22265625 C-10.32213864 4.0935848 -12.03280153 3.85006226 -15 3 C-12.22199328 1.14799552 -10.66558555 0.5142048 -7.5 -0.1875 C-6.7265625 -0.36667969 -5.953125 -0.54585937 -5.15625 -0.73046875 C-3 -1 -3 -1 0 0 Z " fill="#131312" transform="translate(623,251)"/>
<path d="M0 0 C0.66 0.99 1.32 1.98 2 3 C1.38125 3.598125 0.7625 4.19625 0.125 4.8125 C-2.13676954 7.00811144 -2.13676954 7.00811144 -4 10 C-4 9.01 -4 8.02 -4 7 C-4.99 6.67 -5.98 6.34 -7 6 C-4.69 4.02 -2.38 2.04 0 0 Z " fill="#2C2C2A" transform="translate(545,216)"/>
<path d="M0 0 C0.598125 0.20625 1.19625 0.4125 1.8125 0.625 C1.8125 0.955 1.8125 1.285 1.8125 1.625 C3.4625 1.625 5.1125 1.625 6.8125 1.625 C3.27838679 3.74546792 -0.13143835 4.15699289 -4.1875 4.625 C-4.5175 3.635 -4.8475 2.645 -5.1875 1.625 C-2.1875 -0.375 -2.1875 -0.375 0 0 Z " fill="#6E6E6E" transform="translate(673.1875,216.375)"/>
<path d="M0 0 C0.66 0.33 1.32 0.66 2 1 C1.01 2.485 1.01 2.485 0 4 C0.33 4.66 0.66 5.32 1 6 C-0.98 6.99 -0.98 6.99 -3 8 C-3 7.34 -3 6.68 -3 6 C-3.66 6 -4.32 6 -5 6 C-5.33 6.99 -5.66 7.98 -6 9 C-6.66 8.67 -7.32 8.34 -8 8 C-5.33333333 5.33333333 -2.66666667 2.66666667 0 0 Z " fill="#595957" transform="translate(524,236)"/>
<path d="M0 0 C3.60296594 -0.41176754 4.78402067 -0.1535853 7.8125 2 C8.534375 2.66 9.25625 3.32 10 4 C8.375 4.6875 8.375 4.6875 6 5 C2.75 3.5625 2.75 3.5625 0 2 C0 1.34 0 0.68 0 0 Z " fill="#212120" transform="translate(338,237)"/>
<path d="M0 0 C2.35686011 3.53529016 2.54266927 6.39388014 2.8125 10.5 C2.87630859 11.17675781 2.94011719 11.85351562 3.00585938 12.55078125 C3.14453125 14.53125 3.14453125 14.53125 3 18 C2.01 18.99 1.02 19.98 0 21 C0 14.07 0 7.14 0 0 Z " fill="#A2A2A0" transform="translate(239,335)"/>
<path d="M0 0 C2 1 2 1 3.1171875 3.13671875 C4.15384946 6.49898963 4.19595073 9.30043893 4.125 12.8125 C4.10695313 13.97394531 4.08890625 15.13539063 4.0703125 16.33203125 C4.04710937 17.21246094 4.02390625 18.09289062 4 19 C3.67 19 3.34 19 3 19 C2.95101562 18.38253906 2.90203125 17.76507813 2.8515625 17.12890625 C2.33391578 11.26521841 1.38417877 5.72127225 0 0 Z " fill="#8F8F8E" transform="translate(656,330)"/>
<path d="M0 0 C4.875 3.625 4.875 3.625 6 7 C5.01 7.33 4.02 7.66 3 8 C1.35 6.02 -0.3 4.04 -2 2 C-1.34 2 -0.68 2 0 2 C0 1.34 0 0.68 0 0 Z " fill="#353533" transform="translate(394,224)"/>
<path d="M0 0 C0.66 0.33 1.32 0.66 2 1 C2 1.99 2 2.98 2 4 C0 5.6875 0 5.6875 -2 7 C-3.32 6.34 -4.64 5.68 -6 5 C-4.02 3.35 -2.04 1.7 0 0 Z " fill="#DDDDDB" transform="translate(558,209)"/>
<path d="M0 0 C0.66 1.32 1.32 2.64 2 4 C1.01 4.495 1.01 4.495 0 5 C-0.33 5.66 -0.66 6.32 -1 7 C-2.5 5.6875 -2.5 5.6875 -4 4 C-4 3.01 -4 2.02 -4 1 C-2.68 0.67 -1.36 0.34 0 0 Z " fill="#DFDFDD" transform="translate(652,374)"/>
<path d="M0 0 C-0.969375 0.268125 -1.93875 0.53625 -2.9375 0.8125 C-3.948125 1.204375 -4.95875 1.59625 -6 2 C-6.33 2.99 -6.66 3.98 -7 5 C-10 4 -10 4 -13 2 C-11.21089097 1.47044766 -9.41860852 0.9516063 -7.625 0.4375 C-6.62726563 0.14746094 -5.62953125 -0.14257812 -4.6015625 -0.44140625 C-2 -1 -2 -1 0 0 Z " fill="#DEDEDC" transform="translate(474,257)"/>
<path d="M0 0 C3.99500618 1.3697164 6.80009492 3.25722422 10 6 C9.01 6.495 9.01 6.495 8 7 C2.5229794 4.83201268 2.5229794 4.83201268 0.625 1.8125 C0.41875 1.214375 0.2125 0.61625 0 0 Z " fill="#1D1D1B" transform="translate(374,234)"/>
<path d="M0 0 C2.5 2.3125 2.5 2.3125 5 5 C5 5.99 5 6.98 5 8 C2 8 2 8 -0.1875 6 C-0.785625 5.34 -1.38375 4.68 -2 4 C-1.34 2.68 -0.68 1.36 0 0 Z " fill="#494947" transform="translate(512,192)"/>
<path d="M0 0 C0.66 0 1.32 0 2 0 C4.1875 2.25 4.1875 2.25 6 5 C5.75 7.3125 5.75 7.3125 5 9 C2.9754262 7.06745228 1.57894208 5.36841312 0 3 C0 2.01 0 1.02 0 0 Z " fill="#1C1C1B" transform="translate(365,186)"/>
<path d="M0 0 C0.66 0.33 1.32 0.66 2 1 C2 1.99 2 2.98 2 4 C-1.47325181 5.1577506 -4.36067448 5.06866652 -8 5 C-7.4225 4.731875 -6.845 4.46375 -6.25 4.1875 C-3.9674132 2.98280141 -2.0262058 1.59201885 0 0 Z " fill="#D2D2D0" transform="translate(465,268)"/>
<path d="M0 0 C-1.26691507 0.67408308 -2.53870749 1.33900497 -3.8125 2 C-4.52019531 2.37125 -5.22789062 2.7425 -5.95703125 3.125 C-8 4 -8 4 -11 4 C-11 3.34 -11 2.68 -11 2 C-4.03571429 -1.34821429 -4.03571429 -1.34821429 0 0 Z " fill="#111110" transform="translate(483,251)"/>
<path d="M0 0 C2.35171131 0.59861742 4.6859378 1.26924352 7 2 C7.33 2.66 7.66 3.32 8 4 C5.25 4.6875 5.25 4.6875 2 5 C-0.375 3.5625 -0.375 3.5625 -2 2 C-1.34 1.34 -0.68 0.68 0 0 Z " fill="#484847" transform="translate(368,250)"/>
<path d="M0 0 C4.6875 3.61328125 4.6875 3.61328125 6 5 C6 5.99 6 6.98 6 8 C3.53199953 6.84826645 1.95216435 5.95216435 0 4 C0 2.68 0 1.36 0 0 Z " fill="#383836" transform="translate(409,240)"/>
<path d="M0 0 C2.91517292 1.07401108 4.77810176 1.77810176 7 4 C5.39504433 3.88557539 3.79101881 3.75805306 2.1875 3.625 C1.29417969 3.55539063 0.40085937 3.48578125 -0.51953125 3.4140625 C-3 3 -3 3 -6 1 C-3.03 1.495 -3.03 1.495 0 2 C0 1.34 0 0.68 0 0 Z " fill="#353533" transform="translate(318,228)"/>
<path d="M0 0 C2.57112831 1.76765071 3.07659703 3.45089059 4 6.375 C0.63408134 4.93246343 -1.51047079 3.04235273 -4 0.375 C-2 -0.625 -2 -0.625 0 0 Z " fill="#3A3A39" transform="translate(364,224.625)"/>
<path d="M0 0 C3.35620271 1.38877354 5.07298728 2.91677965 7 6 C7 6.66 7 7.32 7 8 C3.64379729 6.61122646 1.92701272 5.08322035 0 2 C0 1.34 0 0.68 0 0 Z " fill="#151513" transform="translate(387,218)"/>
<path d="M0 0 C3.48331435 3.01887244 4.79157144 5.56909529 6 10 C3.69 8.35 1.38 6.7 -1 5 C-0.67 3.35 -0.34 1.7 0 0 Z " fill="#D3D3D1" transform="translate(492,168)"/>
<path d="M0 0 C4.54805635 -0.17835515 7.8794254 0.00214565 12 2 C12 2.33 12 2.66 12 3 C7.45194365 3.17835515 4.1205746 2.99785435 0 1 C0 0.67 0 0.34 0 0 Z " fill="#131312" transform="translate(415,271)"/>
<path d="M0 0 C-1 2 -1 2 -2.99609375 2.703125 C-3.80175781 2.88359375 -4.60742188 3.0640625 -5.4375 3.25 C-6.24058594 3.44078125 -7.04367188 3.6315625 -7.87109375 3.828125 C-8.92490234 3.91320312 -8.92490234 3.91320312 -10 4 C-10.66 3.34 -11.32 2.68 -12 2 C-7.8803623 0.70756464 -4.33168317 -0.26252625 0 0 Z " fill="#131313" transform="translate(242,225)"/>
<path d="M0 0 C2.3125 -0.3125 2.3125 -0.3125 5 0 C6.8125 2.5 6.8125 2.5 8 5 C7.01 5.33 6.02 5.66 5 6 C3.35 4.02 1.7 2.04 0 0 Z " fill="#323231" transform="translate(525,212)"/>
<path d="M0 0 C0.66 0.33 1.32 0.66 2 1 C0.55746343 4.36591866 -1.33264727 6.51047079 -4 9 C-4.66 8.67 -5.32 8.34 -6 8 C-4.02 5.36 -2.04 2.72 0 0 Z " fill="#3B3B3A" transform="translate(657,355)"/>
<path d="M0 0 C0.66 0.33 1.32 0.66 2 1 C1.071875 1.8971875 1.071875 1.8971875 0.125 2.8125 C-2.13676954 5.00811144 -2.13676954 5.00811144 -4 8 C-5.32 7.34 -6.64 6.68 -8 6 C-5.36 4.02 -2.72 2.04 0 0 Z " fill="#D1D1D0" transform="translate(644,237)"/>
<path d="M0 0 C1.27875 0.103125 2.5575 0.20625 3.875 0.3125 C4.95394531 0.39951172 4.95394531 0.39951172 6.0546875 0.48828125 C8 1 8 1 10 4 C9.21625 3.814375 8.4325 3.62875 7.625 3.4375 C5.02910225 2.74037734 5.02910225 2.74037734 3 4 C2.01 3.34 1.02 2.68 0 2 C0 1.34 0 0.68 0 0 Z " fill="#565655" transform="translate(621,212)"/>
<path d="M0 0 C0.99 0 1.98 0 3 0 C4.6875 2 4.6875 2 6 4 C5.67 4.66 5.34 5.32 5 6 C4.01 6 3.02 6 2 6 C0 3 0 3 0 0 Z " fill="#CBCBC9" transform="translate(634,378)"/>
<path d="M0 0 C0.66 0 1.32 0 2 0 C2.33 1.98 2.66 3.96 3 6 C1.02 6.99 1.02 6.99 -1 8 C-1.66 7.34 -2.32 6.68 -3 6 C-1.68 5.34 -0.36 4.68 1 4 C0.67 2.68 0.34 1.36 0 0 Z " fill="#454545" transform="translate(645,229)"/>
<path d="M0 0 C-0.33 0.99 -0.66 1.98 -1 3 C-3.64 3.33 -6.28 3.66 -9 4 C-5.86025155 0.71753571 -4.76763047 0 0 0 Z " fill="#171717" transform="translate(681,215)"/>
<path d="M0 0 C0.66 0.33 1.32 0.66 2 1 C2 1.99 2 2.98 2 4 C-0.60582371 4.93065133 -1.64198224 5.14917407 -4.25 4.0625 C-4.8275 3.711875 -5.405 3.36125 -6 3 C-4.03533587 1.93224776 -2.03144641 0.93446535 0 0 Z " fill="#515151" transform="translate(198,239)"/>
<path d="M0 0 C0 0.99 0 1.98 0 3 C-2.3125 3.625 -2.3125 3.625 -5 4 C-5.99 3.34 -6.98 2.68 -8 2 C-5.09399739 0.74335022 -3.20395416 0 0 0 Z " fill="#383838" transform="translate(840,234)"/>
<path d="M0 0 C2.9375 0.375 2.9375 0.375 6 1 C6.33 1.66 6.66 2.32 7 3 C6.67 3.66 6.34 4.32 6 5 C4.125 4.75 4.125 4.75 2 4 C0.75 1.9375 0.75 1.9375 0 0 Z " fill="#E0E0DE" transform="translate(734,232)"/>
<path d="M0 0 C0 0.66 0 1.32 0 2 C-0.99 2.66 -1.98 3.32 -3 4 C-3.33 4.99 -3.66 5.98 -4 7 C-6 6 -6 6 -8 4 C-2.25 0 -2.25 0 0 0 Z " fill="#CACAC8" transform="translate(530,224)"/>
<path d="M0 0 C2.4375 0.8125 2.4375 0.8125 5 2 C5.33 2.99 5.66 3.98 6 5 C4.35 4.67 2.7 4.34 1 4 C0.67 2.68 0.34 1.36 0 0 Z " fill="#232322" transform="translate(356,220)"/>
<path d="M0 0 C1.32 1.32 2.64 2.64 4 4 C3.67 4.66 3.34 5.32 3 6 C2.67 5.67 2.34 5.34 2 5 C1.34 5.66 0.68 6.32 0 7 C-1 6 -1 6 -1.125 3.5 C-1 1 -1 1 0 0 Z " fill="#555553" transform="translate(371,193)"/>
<path d="M0 0 C-0.99 0 -1.98 0 -3 0 C-3.33 1.32 -3.66 2.64 -4 4 C-5.32 3.67 -6.64 3.34 -8 3 C-8 2.34 -8 1.68 -8 1 C-4.93251126 -0.86240388 -3.40254489 -1.2151946 0 0 Z " fill="#50504D" transform="translate(472,271)"/>
<path d="M0 0 C0.66 0.66 1.32 1.32 2 2 C-1.37097383 3.49821059 -3.20442119 4 -7 4 C-7 3.34 -7 2.68 -7 2 C-4.69 1.34 -2.38 0.68 0 0 Z " fill="#0E0E0C" transform="translate(476,269)"/>
<path d="M0 0 C0 0.66 0 1.32 0 2 C-3.75 3.125 -3.75 3.125 -6 2 C-7.32860925 1.64830932 -8.66158328 1.31229724 -10 1 C-6.52674819 -0.1577506 -3.63932552 -0.06866652 0 0 Z " fill="#464644" transform="translate(482,268)"/>
<path d="M0 0 C0.99 0.33 1.98 0.66 3 1 C0.03 3.475 0.03 3.475 -3 6 C-3.33 5.34 -3.66 4.68 -4 4 C-2.68 2.68 -1.36 1.36 0 0 Z " fill="#191918" transform="translate(512,248)"/>
<path d="M0 0 C0.66 0.33 1.32 0.66 2 1 C0.515 3.475 0.515 3.475 -1 6 C-2.32 5.34 -3.64 4.68 -5 4 C-3.35 2.68 -1.7 1.36 0 0 Z " fill="#494948" transform="translate(485,246)"/>
<path d="M0 0 C1.98 0.66 3.96 1.32 6 2 C5.67 2.99 5.34 3.98 5 5 C3.35 4.67 1.7 4.34 0 4 C0 2.66666667 0 1.33333333 0 0 Z " fill="#5D5D5B" transform="translate(322,229)"/>
<path d="M0 0 C4.75 0.75 4.75 0.75 7 3 C5.125 4.0625 5.125 4.0625 3 5 C2.34 4.67 1.68 4.34 1 4 C0.375 1.9375 0.375 1.9375 0 0 Z " fill="#575756" transform="translate(399,264)"/>
<path d="M0 0 C0 0.66 0 1.32 0 2 C-0.99 2 -1.98 2 -3 2 C-3.33 2.99 -3.66 3.98 -4 5 C-5.98 5 -7.96 5 -10 5 C-9.4225 4.731875 -8.845 4.46375 -8.25 4.1875 C-5.94252104 3.04946754 -5.94252104 3.04946754 -3.875 1.375 C-2 0 -2 0 0 0 Z " fill="#BBBBB9" transform="translate(490,248)"/>
<path d="M0 0 C3.37462715 0.54723683 5.08235 1.0549 8 3 C6.02 3.99 6.02 3.99 4 5 C2 3 2 3 0 0 Z " fill="#505050" transform="translate(702,216)"/>
<path d="M0 0 C3.875 1.75 3.875 1.75 5 4 C4.34 4 3.68 4 3 4 C2.67 4.66 2.34 5.32 2 6 C1.34 5.34 0.68 4.68 0 4 C0 2.68 0 1.36 0 0 Z " fill="#333331" transform="translate(384,214)"/>
<path d="M0 0 C0.66 0.33 1.32 0.66 2 1 C1.6875 2.875 1.6875 2.875 1 5 C0.01 5.66 -0.98 6.32 -2 7 C-2.66 6.34 -3.32 5.68 -4 5 C-3.01 4.34 -2.02 3.68 -1 3 C-1.33 2.34 -1.66 1.68 -2 1 C-1.34 0.67 -0.68 0.34 0 0 Z " fill="#6A6A68" transform="translate(548,209)"/>
<path d="M0 0 C1.65 1.65 3.3 3.3 5 5 C4.34 5.66 3.68 6.32 3 7 C3 6.34 3 5.68 3 5 C2.34 5 1.68 5 1 5 C0.67 5.99 0.34 6.98 0 8 C0 5.36 0 2.72 0 0 Z " fill="#777775" transform="translate(364,181)"/>
</svg>
